<svg width="23" height="24" viewBox="0 0 23 24" fill="none" xmlns="http://www.w3.org/2000/svg">
<path d="M11.7126 0L12.3621 0.0318929L13.1797 0.121772C14.4385 0.30878 15.6325 0.692701 16.7618 1.27354C17.2649 1.53303 17.7459 1.82755 18.205 2.15711L18.5927 2.44414L18.9023 2.69856C19.3198 3.05373 19.7121 3.43524 20.0794 3.84308L20.3577 4.16708L21.184 5.29565L21.6008 5.99729L21.7878 6.35753L21.9603 6.71705L22.5076 8.15367L22.7004 8.87778C23.0937 10.6034 23.0998 12.329 22.7185 14.0546L22.5757 14.6185C22.4312 15.1307 22.2512 15.633 22.0357 16.1254L21.7864 16.6567L21.7414 16.743L21.2957 17.5367L21.1065 17.8295L20.8361 18.226C20.0958 19.2499 19.2132 20.1301 18.1883 20.8666L17.7962 21.1391L17.5062 21.3203L16.7277 21.7588C16.6727 21.7801 16.633 21.8021 16.6089 21.8248L16.0421 22.0807L14.5866 22.5917L13.8835 22.7663L13.1376 22.8975L12.5585 22.965C11.7916 23.0336 11.0257 23.0278 10.2608 22.9476L9.59029 22.8577L8.80747 22.6982L8.30226 22.5619L8.137 22.5112L7.44188 22.2771L6.66921 21.9545L6.4793 21.8654L5.98352 21.6059C5.47758 21.328 4.99436 21.0139 4.53384 20.6636L4.21129 20.4106L3.79089 20.0489L2.73915 18.9653L2.34267 18.476L2.15783 18.2231C1.83069 17.765 1.53786 17.288 1.27933 16.7923C1.03531 16.3216 0.825829 15.8381 0.650902 15.3419L0.423304 14.6236L0.117423 13.2029L0.0355168 12.4795L0 11.8076L0.00362412 11.0545L0.0558123 10.3224L0.149316 9.61784L0.48129 8.18774L0.740781 7.42594C0.925373 6.94126 1.14113 6.4706 1.38806 6.01396L1.65117 5.55804L1.78454 5.34131C2.13053 4.80155 2.51542 4.29392 2.93921 3.81843L3.14361 3.59808L3.60968 3.13056L3.80031 2.95298L4.48093 2.38761L4.57588 2.31585C5.02045 1.98291 5.48459 1.68258 5.96829 1.41488C6.44958 1.15201 6.94489 0.924407 7.45421 0.732084L8.10366 0.509559L9.61132 0.153665L10.3333 0.058712L11.0429 0.00869822L11.7126 0ZM12.4128 3.46399C11.1062 3.79451 10.2741 4.60874 9.91647 5.90668C9.82514 6.27732 9.77609 6.65665 9.76933 7.04467C9.7558 7.89128 9.75242 8.64463 9.75918 9.30471C9.75928 9.30877 9.75854 9.3128 9.75702 9.31658C9.7555 9.32036 9.75322 9.3238 9.75031 9.3267C9.74741 9.3296 9.74394 9.33191 9.74011 9.33349C9.73628 9.33506 9.73217 9.33588 9.72801 9.33588H7.2788C7.27034 9.33588 7.26222 9.33931 7.25624 9.34543C7.25026 9.35155 7.2469 9.35985 7.2469 9.3685V12.1903C7.2469 12.2076 7.25378 12.2242 7.26601 12.2364C7.27824 12.2486 7.29484 12.2555 7.31214 12.2555H9.69902C9.71498 12.2555 9.73028 12.2619 9.74156 12.2731C9.75284 12.2844 9.75918 12.2997 9.75918 12.3157V19.5075C9.75921 19.5178 9.76282 19.5277 9.76934 19.5354C9.77586 19.5431 9.78486 19.5481 9.7947 19.5495L10.2463 19.622L11.0059 19.6887L11.8583 19.6916L12.3454 19.6583C12.4812 19.6665 12.6107 19.652 12.7339 19.6148C12.7442 19.6116 12.7532 19.6052 12.7596 19.5965C12.766 19.5877 12.7695 19.5771 12.7694 19.5662V12.3287C12.7694 12.309 12.7771 12.2902 12.7908 12.2762C12.8045 12.2622 12.8231 12.2543 12.8426 12.2541L14.6315 12.2454L15.2288 12.2345C15.2395 12.2342 15.2498 12.2301 15.2578 12.223C15.2658 12.2158 15.2709 12.206 15.2723 12.1954L15.3281 11.7735L15.5035 10.4318L15.6057 9.59972L15.6354 9.38517C15.6361 9.38002 15.6358 9.37479 15.6343 9.3698C15.6329 9.36481 15.6304 9.36019 15.627 9.35622C15.6237 9.35225 15.6195 9.34904 15.6149 9.34678C15.6102 9.34453 15.6051 9.34328 15.5999 9.34313L15.3665 9.3366L14.6098 9.33515L12.8209 9.33008C12.8084 9.33008 12.7964 9.32512 12.7876 9.31628C12.7787 9.30744 12.7738 9.29546 12.7738 9.28297L12.7723 7.44261C12.7651 7.201 12.7972 6.96422 12.8687 6.73227C13.1239 6.16835 13.6566 6.056 14.2307 6.05527C15.0899 6.05479 15.5811 6.05503 15.7043 6.056C15.7102 6.0561 15.7162 6.055 15.7217 6.05279C15.7272 6.05057 15.7323 6.04728 15.7365 6.0431C15.7408 6.03891 15.7442 6.03393 15.7465 6.02843C15.7488 6.02293 15.7499 6.01702 15.7499 6.01106V3.49878C15.75 3.48804 15.746 3.47768 15.7387 3.46975C15.7315 3.46183 15.7215 3.45693 15.7108 3.45602C14.8676 3.37532 14.0396 3.34149 13.2268 3.35454C13.0127 3.3584 12.7414 3.39489 12.4128 3.46399Z" fill="#012A2C"/>
</svg>
