<svg width="23" height="24" viewBox="0 0 23 24" fill="none" xmlns="http://www.w3.org/2000/svg">
<path d="M11.7025 0L12.4636 0.0434876L13.1152 0.114518L14.5916 0.420381L15.3403 0.657389L15.9883 0.908893L16.1963 1.00022L16.7203 1.25027C18.4994 2.17125 19.951 3.46404 21.0749 5.12865L21.1553 5.25477C21.4641 5.73216 21.7361 6.22792 21.9714 6.74205L22.2563 7.4248L22.6991 8.87947L22.8412 9.58397C23.0398 10.7837 23.0521 11.9864 22.8782 13.192L22.7405 13.9516C22.4607 15.2364 21.9753 16.4381 21.2843 17.5567L21.0872 17.864L20.8074 18.2648L20.3965 18.8019L20.2254 19.0027C19.6209 19.7048 18.942 20.3262 18.1887 20.8669L17.8191 21.1234L17.477 21.3387C17.0267 21.6117 16.5609 21.8535 16.0796 22.0642L15.3019 22.3694L13.8704 22.7702L13.1681 22.8999C11.9562 23.0748 10.742 23.0606 9.52526 22.8571L8.88889 22.7165L7.4422 22.2766L6.64202 21.941L6.44271 21.8432L5.95347 21.5902C5.45094 21.3114 4.96944 20.9961 4.50895 20.6443L4.22048 20.4189L3.83489 20.0841L3.41959 19.6963L3.09198 19.3578L2.71581 18.9367L2.36646 18.5055L2.17221 18.2424C1.84654 17.7896 1.55517 17.3178 1.29811 16.8269L0.975576 16.16L0.923391 16.0426L0.684207 15.4338C0.474016 14.8467 0.310213 14.2473 0.192796 13.6356L0.119593 13.2036L0.0369653 12.4918L0 11.7902L0.0065251 11.0292L0.0587105 10.3073L0.159456 9.56223L0.196421 9.35131L0.301515 8.85917L0.482714 8.18874L0.72697 7.46467L0.913968 6.9921L1.03211 6.72828L1.39161 6.0129C1.81924 5.23061 2.32925 4.50702 2.92165 3.84214L3.04849 3.70008L3.64572 3.09778L3.803 2.95716C4.48624 2.34254 5.23133 1.81634 6.03827 1.37856L7.42046 0.747264C7.94811 0.547704 8.48832 0.386799 9.0411 0.26455L9.53468 0.166703L10.2899 0.0645067L11.0691 0.00869774L11.7025 0ZM8.05683 4.32485C7.53304 4.38284 7.04187 4.54447 6.58332 4.80974L6.00638 5.19823L5.86359 5.32217L5.29463 5.9368C4.95929 6.38086 4.72518 6.87179 4.5923 7.40958L4.48431 8.19091L4.47489 8.87802L4.46909 13.9161L4.47416 14.6771L4.55317 15.4396L4.78945 16.2108C5.16103 17.067 5.74835 17.7295 6.55142 18.1982L6.89643 18.3692L7.33131 18.5417L8.04161 18.699C8.21991 18.7174 8.39942 18.727 8.58013 18.728C10.4472 18.7396 12.3145 18.7425 14.1821 18.7367C14.3338 18.7362 14.486 18.7306 14.6387 18.72L15.3961 18.6149C15.9194 18.4859 16.4004 18.261 16.8392 17.9401L17.2132 17.6314L17.5603 17.2654L17.8452 16.8863L18.2112 16.2115L18.3199 15.9281C18.4576 15.5058 18.5265 15.1649 18.5265 14.9054C18.5241 12.6479 18.5258 10.3904 18.5316 8.13293C18.5321 7.83866 18.4593 7.48013 18.3134 7.05733L18.1416 6.63188C17.6923 5.71864 17.0056 5.05134 16.0818 4.62999L15.5396 4.43357C15.184 4.3379 14.8402 4.28934 14.5082 4.28789C13.696 4.28547 11.6786 4.28596 8.45619 4.28934C8.35858 4.28934 8.22546 4.30118 8.05683 4.32485Z" fill="#012A2C"/>
<path d="M14.4735 5.40335C14.7856 5.40335 15.0905 5.45844 15.3882 5.5686L16.0158 5.87157L16.2463 6.02957L16.7044 6.46663L16.9131 6.73987C17.2581 7.25786 17.4311 7.77633 17.4321 8.29528C17.4355 10.4156 17.4359 12.5358 17.4335 14.6561C17.4331 15.1204 17.312 15.5778 17.0704 16.0281C16.8109 16.5036 16.4524 16.8839 15.9948 17.169C15.573 17.4294 15.1132 17.5804 14.6155 17.622L13.761 17.6241L8.7976 17.6176L8.11049 17.5879C7.57559 17.4908 7.09868 17.2736 6.67974 16.9363L6.50072 16.7768C6.09774 16.3845 5.82086 15.9184 5.67011 15.3787L5.56573 14.7249L5.57806 8.13003L5.70924 7.49801C6.00931 6.63792 6.57513 6.0187 7.40672 5.64036L8.11484 5.4106L14.4735 5.40335ZM14.5488 7.82852C14.5908 7.96112 14.6622 8.08253 14.7576 8.18367C14.9078 8.34232 15.1095 8.44249 15.3266 8.46634C15.449 8.47986 15.5729 8.46874 15.691 8.43364C15.809 8.39853 15.9187 8.34015 16.0137 8.26194C16.1305 8.16559 16.2219 8.04205 16.2797 7.90224C16.3374 7.76243 16.3598 7.61066 16.3449 7.46032C16.326 7.26625 16.2461 7.08326 16.1166 6.93774C16.0198 6.82905 15.8988 6.74475 15.7634 6.69172C15.6279 6.6387 15.482 6.61844 15.3374 6.6326C15.2009 6.64605 15.0691 6.68982 14.9516 6.76073C14.8341 6.83164 14.734 6.9279 14.6584 7.04248C14.5828 7.15707 14.5338 7.2871 14.5148 7.42308C14.4959 7.55907 14.5075 7.69758 14.5488 7.82852ZM11.0437 7.65964L10.2247 7.83866L9.68619 8.07495L9.50137 8.18294C8.92589 8.52843 8.47289 8.99205 8.14238 9.57382C7.88919 10.0251 7.73239 10.5052 7.67199 11.014L7.64735 11.7192C7.70823 12.647 8.05758 13.452 8.6954 14.1342C9.13994 14.6107 9.67364 14.9506 10.2965 15.154L10.9792 15.3099L11.7395 15.3359L12.4469 15.2287L13.2442 14.9337L13.5385 14.7648L13.919 14.4966L14.4227 14.0016C14.7958 13.5585 15.0593 13.0577 15.2135 12.4991L15.3389 11.8098L15.3324 10.9292L15.2106 10.2863L14.9127 9.53034L14.6706 9.14185L14.4082 8.81931L13.9118 8.38081L13.3856 8.06697L13.2428 7.99957L12.4636 7.75169L11.7533 7.65384L11.0437 7.65964Z" fill="#012A2C"/>
<path d="M12.4136 9.11067C12.6518 9.18025 12.8794 9.28825 13.0963 9.43466L13.2754 9.57382C13.6967 9.96569 13.9349 10.4576 13.99 11.0495L13.9893 11.7707C13.9231 12.3003 13.716 12.7624 13.3681 13.1572L13.1471 13.3739C12.7344 13.7238 12.2565 13.9265 11.7134 13.982L11.0676 13.9559L10.6342 13.8385L10.2972 13.6863C9.77098 13.3882 9.39336 12.9625 9.16432 12.4092C8.89712 11.7071 8.9278 11.0193 9.25637 10.3457L9.63834 9.78763L9.74053 9.68036L10.3008 9.26505C10.9637 8.93165 11.668 8.88019 12.4136 9.11067Z" fill="#012A2C"/>
</svg>
