<svg width="217" height="190" viewBox="0 0 217 190" fill="none" xmlns="http://www.w3.org/2000/svg">
<path d="M129.367 6.71091L129.337 6.81513C129.327 6.85212 129.304 6.88453 129.272 6.90739C129.241 6.93025 129.203 6.9423 129.164 6.94169C128.328 6.93341 127.901 7.45866 127.881 8.51743C127.863 9.53649 127.852 10.7516 127.848 12.1627C127.848 12.2384 127.826 12.3124 127.785 12.3761C127.744 12.4398 127.686 12.4906 127.618 12.5225C125.097 13.7037 121.943 14.0288 119.635 12.525C117.344 11.0336 116.394 8.43057 116.63 5.74809C116.888 2.86957 118.818 0.296278 121.885 0.0357223C123.771 -0.123092 126.089 0.219355 127.3 1.63628C127.737 2.14747 127.752 3.43039 127.747 4.03091C127.746 4.09594 127.721 4.15834 127.677 4.20606C127.633 4.25378 127.572 4.28343 127.507 4.28929C127.443 4.29515 127.378 4.27681 127.326 4.2378C127.274 4.19879 127.238 4.14188 127.226 4.07806C126.834 2.11107 125.641 1.03742 123.647 0.857096C118.729 0.412911 117.987 6.19228 118.945 9.55717C119.833 12.6838 123.243 13.3638 125.92 12.1205C125.959 12.1014 125.992 12.0721 126.015 12.0357C126.038 11.9994 126.051 11.9575 126.052 11.9146C126.055 11.2131 126.061 10.2842 126.069 9.12787C126.077 7.7308 126.325 6.92928 127.724 6.62654C128.285 6.50577 128.783 6.46276 129.218 6.4975C129.243 6.49952 129.267 6.50698 129.289 6.51937C129.31 6.53175 129.329 6.54875 129.343 6.56914C129.357 6.58953 129.367 6.61281 129.371 6.63732C129.375 6.66182 129.374 6.68696 129.367 6.71091Z" fill="#E7E3D3"/>
<path d="M134.896 14.1504L133.37 13.8725C133.336 13.8657 133.306 13.8464 133.287 13.8186C133.268 13.7908 133.26 13.7567 133.266 13.7236C134.44 7.31308 135.066 3.89195 135.144 3.46017C135.345 2.34847 135.214 1.61643 133.928 1.45017C133.905 1.44688 133.883 1.43893 133.863 1.42681C133.843 1.41469 133.825 1.39865 133.812 1.37964C133.798 1.36063 133.788 1.33906 133.783 1.31621C133.778 1.29336 133.777 1.26972 133.782 1.24669L133.802 1.1375C133.81 1.09067 133.837 1.04906 133.875 1.02166C133.914 0.994257 133.961 0.983279 134.008 0.991096C136.468 1.43776 138.141 1.74712 139.028 1.91917C140.1 2.13092 141.06 2.5445 141.909 3.15991C143.085 4.01602 143.219 5.25676 142.829 6.6588C142.4 8.21221 140.946 8.78543 139.469 8.87228C139.456 8.87287 139.442 8.87673 139.431 8.88355C139.419 8.89037 139.409 8.89996 139.401 8.91155C139.394 8.92314 139.389 8.9364 139.388 8.95027C139.386 8.96414 139.388 8.97823 139.392 8.99139C139.728 9.89631 140.116 10.936 140.556 12.1106C141.072 13.4928 141.457 14.5772 142.713 15.1231C142.763 15.1452 142.804 15.1832 142.83 15.2312C142.857 15.2793 142.866 15.3347 142.858 15.3888C142.849 15.4429 142.823 15.4926 142.783 15.5303C142.744 15.568 142.693 15.5915 142.638 15.5971C140.995 15.7543 139.829 15.0173 139.139 13.3861C138.643 12.2148 138.066 10.6755 137.41 8.76806C137.396 8.72639 137.371 8.68922 137.338 8.66041C137.305 8.63161 137.264 8.61222 137.221 8.60428L136.231 8.42313C136.211 8.41948 136.191 8.41967 136.172 8.42369C136.152 8.4277 136.134 8.43547 136.118 8.44653C136.101 8.4576 136.087 8.47175 136.076 8.48817C136.066 8.5046 136.058 8.52297 136.055 8.54224L135.047 14.0487C135.041 14.0822 135.021 14.1118 134.993 14.1308C134.964 14.1499 134.929 14.157 134.896 14.1504ZM137.137 2.60902L136.266 7.40324C136.26 7.436 136.26 7.46964 136.267 7.50222C136.274 7.53481 136.287 7.56571 136.306 7.59314C136.325 7.62058 136.349 7.64401 136.377 7.6621C136.405 7.68019 136.436 7.69257 136.469 7.69854L137.524 7.88961C138.315 8.03313 139.123 7.89601 139.771 7.5084C140.42 7.12079 140.855 6.5144 140.981 5.82254L140.995 5.7481C141.058 5.40527 141.042 5.0518 140.949 4.70787C140.857 4.36395 140.689 4.0363 140.456 3.74365C140.223 3.451 139.928 3.19907 139.59 3.00226C139.252 2.80545 138.876 2.66761 138.484 2.59661L137.43 2.40554C137.364 2.39396 137.296 2.40885 137.241 2.44697C137.186 2.48508 137.149 2.54333 137.137 2.60902Z" fill="#E7E3D3"/>
<path d="M99.7606 16.1926L98.2593 16.5773C98.226 16.585 98.1911 16.5798 98.1619 16.5627C98.1328 16.5455 98.1116 16.5178 98.103 16.4855C96.4883 10.1825 95.6265 6.81926 95.5173 6.39576C95.2319 5.30391 94.8076 4.69594 93.5743 5.08057C93.5518 5.08774 93.5281 5.09026 93.5046 5.08797C93.4811 5.08568 93.4584 5.07863 93.4377 5.06725C93.417 5.05587 93.3989 5.04041 93.3844 5.02179C93.3699 5.00318 93.3594 4.98181 93.3534 4.95898L93.3261 4.8498C93.3146 4.80368 93.3214 4.75494 93.345 4.71409C93.3687 4.67323 93.4074 4.64354 93.4527 4.63142C95.8696 4.00775 97.5157 3.5892 98.3908 3.3758C99.4529 3.11938 100.497 3.0929 101.522 3.29639C102.947 3.57928 103.59 4.65128 103.82 6.08309C104.081 7.67124 103.001 8.80031 101.699 9.49513C101.687 9.50154 101.676 9.51072 101.668 9.52192C101.66 9.53312 101.655 9.54602 101.653 9.55956C101.651 9.57311 101.653 9.58692 101.657 9.59987C101.662 9.61282 101.669 9.62455 101.679 9.63409C102.362 10.314 103.149 11.0949 104.039 11.9766C105.086 13.0139 105.885 13.8377 107.255 13.8079C107.308 13.8083 107.361 13.8262 107.404 13.8588C107.446 13.8915 107.477 13.9371 107.492 13.9889C107.506 14.0407 107.504 14.0959 107.484 14.1461C107.465 14.1962 107.429 14.2387 107.384 14.267C105.959 15.0958 104.594 14.9155 103.287 13.7261C102.347 12.8708 101.181 11.7161 99.7879 10.2619C99.7578 10.2301 99.7198 10.2068 99.6779 10.1946C99.636 10.1824 99.5918 10.1816 99.5497 10.1924L98.5744 10.4406C98.555 10.4455 98.5368 10.4543 98.5208 10.4662C98.5047 10.4782 98.4913 10.4931 98.4811 10.5102C98.4709 10.5273 98.4643 10.5462 98.4616 10.5657C98.4589 10.5853 98.4601 10.6052 98.4653 10.6242L99.8549 16.0363C99.859 16.0528 99.8598 16.0699 99.8572 16.0866C99.8547 16.1034 99.8489 16.1195 99.8401 16.134C99.8314 16.1485 99.8199 16.1612 99.8062 16.1713C99.7926 16.1813 99.7771 16.1886 99.7606 16.1926ZM96.9789 4.85228L98.17 9.46039C98.1801 9.49884 98.1976 9.53493 98.2217 9.56659C98.2457 9.59825 98.2758 9.62486 98.3101 9.64491C98.3445 9.66496 98.3824 9.67805 98.4218 9.68343C98.4612 9.68881 98.5013 9.68638 98.5397 9.67628L99.5447 9.41572C100.316 9.21616 100.987 8.75772 101.409 8.14117C101.832 7.52462 101.971 6.80042 101.798 6.12776L101.768 6.00617C101.682 5.673 101.521 5.36257 101.295 5.09259C101.07 4.82262 100.783 4.59839 100.452 4.43271C100.121 4.26703 99.7516 4.16315 99.3656 4.12699C98.9796 4.09083 98.5843 4.12311 98.2022 4.22198L97.1947 4.48253C97.1563 4.49263 97.1202 4.51021 97.0885 4.53426C97.0569 4.55831 97.0303 4.58836 97.0102 4.62269C96.9902 4.65703 96.9771 4.69497 96.9717 4.73437C96.9663 4.77376 96.9688 4.81382 96.9789 4.85228Z" fill="#E7E3D3"/>
<path d="M150.49 18.6394C146.854 17.287 145.991 13.54 147.231 10.2048C148.472 6.87222 151.576 4.60166 155.212 5.95655C158.847 7.30895 159.711 11.056 158.47 14.3886C157.229 17.7213 154.125 19.9918 150.49 18.6394ZM149.107 10.8997C148.221 13.267 147.832 16.7386 150.777 17.8379C153.723 18.9397 155.706 16.0661 156.591 13.6988C157.477 11.3314 157.867 7.85984 154.921 6.76055C151.976 5.65877 149.993 8.53232 149.107 10.8997Z" fill="#E7E3D3"/>
<path d="M87.4053 20.771L85.9883 21.3889C85.9566 21.4026 85.9209 21.4035 85.8888 21.3915C85.8568 21.3794 85.831 21.3553 85.8171 21.3243C83.2149 15.3671 81.8261 12.1884 81.6507 11.788C81.1966 10.7557 80.678 10.2247 79.5241 10.8029C79.503 10.8132 79.48 10.8191 79.4566 10.8203C79.4331 10.8215 79.4097 10.818 79.3876 10.8099C79.3656 10.8017 79.3454 10.7892 79.3284 10.7731C79.3113 10.757 79.2977 10.7376 79.2883 10.716L79.2437 10.6143C79.225 10.5704 79.2242 10.521 79.2414 10.4769C79.2586 10.4327 79.2924 10.3974 79.3355 10.3785C81.6184 9.37767 83.1743 8.70105 84.0031 8.34868C85.0073 7.92517 86.0322 7.73244 87.0777 7.77049C88.5294 7.82012 89.3334 8.77301 89.79 10.1502C90.3011 11.6739 89.4153 12.9593 88.244 13.8551C88.2329 13.8633 88.2239 13.8741 88.2177 13.8865C88.2116 13.8989 88.2085 13.9126 88.2088 13.9264C88.209 13.9403 88.2126 13.9539 88.2191 13.9661C88.2257 13.9782 88.2351 13.9887 88.2465 13.9965C89.029 14.5573 89.9298 15.2009 90.9488 15.9271C92.1474 16.7832 93.068 17.4656 94.413 17.2175C94.4666 17.2086 94.5216 17.2175 94.5697 17.2429C94.6177 17.2683 94.6561 17.3087 94.6789 17.358C94.7018 17.4073 94.7078 17.4628 94.696 17.5159C94.6843 17.5689 94.6555 17.6167 94.614 17.6518C93.3418 18.6956 91.967 18.7362 90.4897 17.7733C89.426 17.0802 88.0901 16.1281 86.4821 14.9172C86.4473 14.8908 86.4062 14.8741 86.363 14.8688C86.3198 14.8636 86.2761 14.87 86.2365 14.8874L85.3158 15.2869C85.2974 15.2948 85.2807 15.3063 85.2667 15.3206C85.2527 15.3349 85.2417 15.3518 85.2343 15.3702C85.227 15.3887 85.2233 15.4084 85.2237 15.4282C85.2241 15.4479 85.2284 15.4674 85.2364 15.4854L87.4723 20.5998C87.4792 20.6154 87.483 20.6322 87.4834 20.6493C87.4838 20.6664 87.4808 20.6835 87.4746 20.6994C87.4684 20.7153 87.459 20.7299 87.4471 20.7421C87.4352 20.7544 87.421 20.7642 87.4053 20.771ZM82.8542 10.0311L84.7526 14.3787C84.769 14.416 84.7926 14.4498 84.8221 14.478C84.8516 14.5062 84.8863 14.5283 84.9243 14.543C84.9624 14.5578 85.0029 14.5649 85.0437 14.5639C85.0845 14.563 85.1247 14.554 85.162 14.5375L86.1 14.128C86.4626 13.9697 86.7945 13.7509 87.0769 13.4843C87.3593 13.2176 87.5866 12.9083 87.7458 12.5739C87.905 12.2396 87.9931 11.8867 88.0049 11.5356C88.0167 11.1845 87.9521 10.8419 87.8147 10.5274L87.7601 10.4009C87.6228 10.0861 87.4153 9.80567 87.1495 9.57556C86.8837 9.34545 86.5648 9.17018 86.211 9.05979C85.8573 8.9494 85.4756 8.90604 85.0878 8.9322C84.7 8.95835 84.3137 9.05352 83.951 9.21223L83.013 9.62168C82.9757 9.6381 82.942 9.66172 82.9138 9.6912C82.8856 9.72067 82.8634 9.75542 82.8487 9.79346C82.8339 9.83149 82.8268 9.87206 82.8278 9.91284C82.8287 9.95362 82.8377 9.99381 82.8542 10.0311Z" fill="#E7E3D3"/>
<path d="M175.076 16.5078C175.103 16.5294 175.122 16.5601 175.128 16.5943C175.135 16.6286 175.128 16.6639 175.111 16.6939C173.662 19.1282 172.423 21.1109 171.344 22.9547C170.801 23.8828 170.159 24.6694 169.418 25.3146C167.537 26.9548 165.066 25.7836 163.239 24.3567C160.82 22.4634 161.631 19.905 162.979 17.6915C164.094 15.8585 165.014 14.32 165.741 13.0759C166.282 12.1445 166.102 11.4836 165.202 11.0932C165.171 11.0797 165.144 11.0592 165.122 11.0333C165.1 11.0074 165.084 10.9769 165.076 10.944C165.068 10.9112 165.068 10.8769 165.075 10.8438C165.082 10.8107 165.097 10.7797 165.118 10.7532L165.18 10.6738C165.202 10.6449 165.235 10.6251 165.271 10.6178C165.307 10.6105 165.344 10.6163 165.376 10.6341C166.306 11.1586 166.962 11.5738 167.344 11.8798C168.029 12.4282 167.704 13.3538 167.289 14.0437C165.756 16.5913 164.63 18.4748 163.912 19.694C163.006 21.2301 162.914 23.0589 164.51 24.2054C166.969 25.9747 168.785 25.3344 170.341 22.9348C170.742 22.3194 172.096 20.082 174.404 16.2224C174.416 16.2017 174.433 16.1837 174.453 16.1699C174.473 16.156 174.495 16.1466 174.519 16.1421C174.543 16.1377 174.567 16.1383 174.59 16.144C174.614 16.1497 174.635 16.1604 174.654 16.1753L175.076 16.5078Z" fill="#E7E3D3"/>
<path d="M75.9483 19.5029C75.9665 19.5013 76.1625 19.4417 76.5364 19.3243C78.0865 18.8346 79.271 19.316 80.0899 20.7685C81.3157 22.9423 79.5737 24.8878 77.8863 26.0367C76.945 26.6753 75.7191 27.4776 74.2087 28.4437C74.199 28.4503 74.188 28.4548 74.1765 28.4571C74.1649 28.4594 74.1531 28.4594 74.1416 28.4571C74.13 28.4548 74.1191 28.4502 74.1093 28.4437C74.0995 28.4371 74.0912 28.4287 74.0847 28.4189C71.0539 23.7521 69.1374 20.8074 68.3351 19.5848C67.8115 18.7858 67.0869 18.2299 66.1886 19.0116C66.1651 19.0319 66.1376 19.047 66.1078 19.056C66.0781 19.065 66.0469 19.0678 66.0161 19.064C65.9852 19.0603 65.9555 19.0502 65.9288 19.0343C65.9021 19.0184 65.8791 18.9972 65.861 18.9719L65.8461 18.9521C65.8277 18.9259 65.8147 18.8964 65.8079 18.8652C65.801 18.8341 65.8005 18.8019 65.8063 18.7707C65.8121 18.7394 65.8241 18.7097 65.8416 18.6833C65.8591 18.6569 65.8817 18.6344 65.9082 18.6171C68.3566 17.0124 69.8794 16.0297 70.4766 15.6691C71.8786 14.8179 74.1343 13.9543 75.5041 15.1777C76.8441 16.3763 76.9011 18.0165 75.8738 19.3838C75.8655 19.3962 75.861 19.4106 75.8607 19.4255C75.8605 19.4403 75.8646 19.4549 75.8724 19.4675C75.8803 19.4801 75.8916 19.4902 75.9051 19.4964C75.9186 19.5027 75.9335 19.505 75.9483 19.5029ZM69.2904 17.7088L71.7421 21.4856C71.7832 21.5479 71.8471 21.5914 71.9201 21.6067C71.9931 21.6221 72.0691 21.608 72.1317 21.5675L73.3973 20.7462C73.7308 20.5297 74.0265 20.2621 74.2675 19.9586C74.5085 19.6552 74.6901 19.3218 74.8018 18.9775C74.9136 18.6333 74.9534 18.2848 74.9189 17.9522C74.8844 17.6196 74.7763 17.3092 74.6008 17.0388L74.514 16.9048C74.3384 16.6345 74.0989 16.4094 73.8092 16.2425C73.5194 16.0756 73.1849 15.9702 72.825 15.9321C72.4651 15.8941 72.0867 15.9243 71.7114 16.0209C71.3361 16.1176 70.9713 16.2788 70.6379 16.4954L69.3723 17.3168C69.3412 17.3371 69.3143 17.3634 69.2934 17.3941C69.2724 17.4248 69.2577 17.4594 69.2501 17.4958C69.2424 17.5322 69.2421 17.5698 69.249 17.6063C69.256 17.6429 69.27 17.6777 69.2904 17.7088ZM72.4593 22.58L75.0301 26.5355C75.0542 26.5716 75.0895 26.5988 75.1304 26.6127C75.1712 26.6266 75.2154 26.6265 75.2559 26.6124C76.5091 26.1831 78.2635 25.0962 78.6481 23.7512C78.8003 23.2202 78.8127 22.7901 78.6853 22.4609C77.9872 20.6676 76.7233 20.1423 74.8936 20.8851C74.5098 21.039 73.7149 21.5245 72.5089 22.3418C72.4899 22.3541 72.4736 22.37 72.4608 22.3887C72.448 22.4073 72.439 22.4284 72.4344 22.4505C72.4298 22.4727 72.4296 22.4955 72.4339 22.5177C72.4382 22.54 72.4468 22.5611 72.4593 22.58Z" fill="#E7E3D3"/>
<path d="M172.82 30.7391C172.807 30.7281 172.796 30.7146 172.788 30.6994C172.781 30.6842 172.776 30.6675 172.774 30.6504C172.773 30.6333 172.775 30.6161 172.78 30.5998C172.786 30.5835 172.794 30.5684 172.806 30.5555C176.05 26.8002 178.379 24.0796 179.793 22.3939C180.49 21.5651 180.416 20.8835 179.573 20.3491C179.549 20.3344 179.529 20.3148 179.514 20.2917C179.499 20.2685 179.489 20.2423 179.485 20.2149C179.481 20.1876 179.483 20.1597 179.491 20.1331C179.499 20.1066 179.512 20.0821 179.53 20.0613L179.6 19.9769C179.634 19.9379 179.682 19.914 179.733 19.9103C179.785 19.9065 179.836 19.9234 179.875 19.9571C181.563 21.4079 182.701 22.3823 183.29 22.8802C184.573 23.9671 186.163 25.796 185.652 27.5603C185.312 28.7341 184.129 30.2602 182.739 30.4637C180.667 30.7664 179.039 29.3743 177.627 27.9995C177.611 27.9843 177.593 27.9725 177.572 27.9648C177.551 27.9572 177.529 27.9538 177.507 27.955C177.485 27.9562 177.464 27.9618 177.444 27.9716C177.424 27.9814 177.406 27.9951 177.391 28.0119L174.19 31.7466C174.18 31.7593 174.167 31.7697 174.152 31.7772C174.137 31.7847 174.121 31.7891 174.104 31.7903C174.088 31.7914 174.071 31.7893 174.055 31.7839C174.039 31.7785 174.024 31.7701 174.012 31.759L172.82 30.7391ZM181.749 22.9373L178.148 27.1385C178.104 27.1899 178.082 27.2566 178.087 27.324C178.093 27.3915 178.124 27.4541 178.175 27.4983L179.017 28.2204C179.615 28.7333 180.388 28.9934 181.165 28.9437C181.942 28.8939 182.659 28.5382 183.158 27.9549L183.325 27.7638C183.572 27.4751 183.759 27.1391 183.874 26.775C183.99 26.411 184.031 26.026 183.997 25.6421C183.962 25.2582 183.852 24.8829 183.673 24.5376C183.494 24.1923 183.249 23.8837 182.952 23.6296L182.109 22.9075C182.057 22.8638 181.99 22.8424 181.923 22.848C181.855 22.8536 181.793 22.8857 181.749 22.9373Z" fill="#E7E3D3"/>
<path d="M71.3773 159.243L71.5014 159.349C71.5355 159.379 71.5564 159.421 71.5597 159.466C71.563 159.511 71.5482 159.556 71.5188 159.59C68.5112 163.122 66.2506 165.781 64.7369 167.568C63.9544 168.491 63.9784 169.217 64.8089 169.747C64.8375 169.765 64.862 169.789 64.8806 169.817C64.8992 169.845 64.9115 169.877 64.9167 169.91C64.9219 169.944 64.9198 169.978 64.9106 170.011C64.9014 170.043 64.8853 170.073 64.8634 170.099L64.8113 170.159C64.7957 170.177 64.7767 170.192 64.7553 170.203C64.734 170.214 64.7107 170.22 64.6869 170.222C64.6632 170.224 64.6393 170.221 64.6168 170.214C64.5943 170.206 64.5735 170.194 64.5557 170.179C62.3257 168.284 61.0304 167.183 60.6697 166.873C60.1271 166.407 59.6201 165.778 59.1486 164.987C58.3098 163.578 58.5555 162.275 59.6077 161.002C60.8683 159.477 62.444 159.213 64.3349 160.21C65.1786 160.655 66.1414 161.593 66.7767 162.121C66.8067 162.146 66.8454 162.158 66.8844 162.155C66.9235 162.152 66.9596 162.133 66.9851 162.104L69.4046 159.28C69.4137 159.269 69.4196 159.256 69.4216 159.241C69.4236 159.227 69.4216 159.213 69.4158 159.2C69.4101 159.187 69.4008 159.177 69.3891 159.169C69.3774 159.162 69.3638 159.158 69.35 159.158H0.146406C0.107577 159.158 0.0703381 159.143 0.0428814 159.115C0.0154247 159.088 0 159.051 0 159.012V32.7516C0 32.7279 0.00941105 32.7052 0.0261643 32.6884C0.0429175 32.6717 0.0656408 32.6623 0.0893335 32.6623H126.541C126.561 32.6623 126.581 32.6704 126.595 32.6848C126.609 32.6992 126.618 32.7188 126.618 32.7392V60.1645C126.618 60.1948 126.63 60.2238 126.651 60.2452C126.672 60.2666 126.701 60.2787 126.732 60.2787C128.796 60.2489 130.824 60.3151 132.814 60.4772C138.076 60.904 143.034 62.244 147.688 64.4972C152.641 66.8943 155.299 71.3014 155.946 76.7185C156.591 82.1157 155.897 88.0067 152.09 92.0069C150.773 93.3899 148.959 94.6985 146.648 95.9326C144.162 97.2594 141.509 98.2379 138.69 98.8682C138.673 98.8719 138.657 98.8797 138.644 98.8908C138.63 98.902 138.62 98.9161 138.613 98.9322C138.606 98.9482 138.603 98.9656 138.605 98.983C138.606 99.0003 138.611 99.0171 138.621 99.032C143.193 106.675 147.28 113.481 150.882 119.45C152.005 121.309 153.277 123.117 154.698 124.874C157.351 128.155 160.522 130.311 164.798 130.792C164.842 130.797 164.883 130.818 164.913 130.851C164.943 130.884 164.959 130.927 164.959 130.971V132.934C164.959 132.987 164.942 133.039 164.911 133.082C164.88 133.126 164.836 133.158 164.785 133.175C162.201 134.007 159.519 134.319 156.738 134.113C151.631 133.733 147.832 131.108 144.608 127.219C142.686 124.9 140.807 122.185 138.97 119.075C136.393 114.706 132.576 108.218 127.521 99.6126C127.496 99.5703 127.46 99.5353 127.418 99.5109C127.375 99.4866 127.327 99.4737 127.278 99.4737H126.794C126.747 99.4737 126.702 99.4922 126.669 99.5253C126.636 99.5583 126.618 99.6031 126.618 99.6499V159.066C126.618 159.091 126.608 159.114 126.591 159.131C126.573 159.149 126.55 159.158 126.526 159.158H71.4096C71.3996 159.159 71.3899 159.162 71.3818 159.168C71.3736 159.174 71.3673 159.182 71.3639 159.191C71.3604 159.2 71.3598 159.21 71.3622 159.219C71.3646 159.228 71.3699 159.237 71.3773 159.243ZM119.674 67.4551C118.272 66.1465 116.635 65.096 114.766 64.3036C110.142 62.3433 105.225 61.1356 100.014 60.6807C99.9778 60.6781 99.9443 60.6619 99.9199 60.6352C99.8955 60.6084 99.882 60.5733 99.8821 60.5367V60.3854C99.8821 60.3558 99.8936 60.3274 99.9141 60.3064C99.9346 60.2855 99.9623 60.2737 99.9913 60.2737H125.719C125.76 60.2737 125.799 60.2575 125.828 60.2286C125.857 60.1998 125.873 60.1607 125.873 60.1199V33.4911C125.873 33.48 125.871 33.469 125.867 33.4588C125.862 33.4485 125.856 33.4392 125.848 33.4314C125.841 33.4236 125.831 33.4174 125.821 33.4131C125.811 33.4089 125.8 33.4067 125.789 33.4067H0.95537C0.915882 33.4067 0.878012 33.4224 0.85009 33.4503C0.822168 33.4782 0.806481 33.5161 0.806481 33.5556V158.324C0.806481 158.348 0.815371 158.37 0.831194 158.386C0.847016 158.402 0.868474 158.411 0.890851 158.411H125.754C125.786 158.411 125.816 158.399 125.838 158.376C125.861 158.354 125.873 158.324 125.873 158.292V99.558C125.873 99.5476 125.871 99.5373 125.867 99.5277C125.863 99.518 125.857 99.5093 125.85 99.5019C125.843 99.4945 125.834 99.4887 125.824 99.4847C125.814 99.4807 125.804 99.4786 125.794 99.4786H119.945C119.905 99.4786 119.866 99.4946 119.838 99.523C119.809 99.5513 119.794 99.5899 119.794 99.63V102.578C119.793 102.586 119.79 102.593 119.786 102.6C119.781 102.606 119.775 102.611 119.768 102.614C119.761 102.618 119.753 102.619 119.745 102.617C119.737 102.616 119.73 102.613 119.724 102.608C116.945 100.035 113.661 98.1725 109.873 97.0195C109.84 97.0092 109.811 96.9884 109.791 96.9604C109.771 96.9324 109.76 96.8985 109.761 96.8641C109.762 96.8296 109.774 96.7963 109.796 96.7693C109.817 96.7423 109.847 96.723 109.88 96.7143C110.208 96.6365 110.381 96.5943 110.401 96.5877C113.931 95.4379 117.029 93.6438 119.694 91.2054C119.703 91.1977 119.713 91.1927 119.725 91.1909C119.736 91.1891 119.748 91.1907 119.758 91.1954C119.769 91.2002 119.778 91.2079 119.784 91.2175C119.79 91.2272 119.794 91.2385 119.794 91.25V95.4214C119.794 95.4609 119.809 95.4988 119.837 95.5267C119.865 95.5546 119.903 95.5703 119.942 95.5703H125.799C125.818 95.5703 125.837 95.5624 125.851 95.5485C125.865 95.5345 125.873 95.5156 125.873 95.4959V64.4227C125.873 64.4044 125.869 64.3862 125.862 64.3694C125.855 64.3525 125.844 64.3375 125.83 64.3251C125.817 64.3127 125.801 64.3033 125.783 64.2974C125.766 64.2916 125.747 64.2895 125.729 64.2912C123.822 64.4616 121.894 64.79 119.947 65.2764C119.903 65.287 119.864 65.3121 119.836 65.3477C119.808 65.3832 119.793 65.4272 119.794 65.4724V67.403C119.793 67.4166 119.789 67.4298 119.781 67.4411C119.774 67.4524 119.763 67.4612 119.75 67.4667C119.738 67.4722 119.724 67.474 119.711 67.4719C119.697 67.4699 119.685 67.464 119.674 67.4551ZM126.563 64.393L126.672 95.481C126.672 95.5001 126.68 95.5183 126.693 95.5318C126.707 95.5453 126.725 95.5529 126.744 95.5529L127.573 95.5504C129.877 95.5425 132.158 95.144 134.284 94.3779C136.41 93.6117 138.341 92.4928 139.966 91.0852C141.59 89.6775 142.877 88.0085 143.752 86.1736C144.628 84.3387 145.074 82.3738 145.067 80.3911L145.062 79.3538C145.048 75.35 143.186 71.5166 139.886 68.697C136.585 65.8774 132.117 64.3024 127.464 64.3185L126.635 64.321C126.626 64.321 126.616 64.3229 126.607 64.3265C126.599 64.3301 126.591 64.3354 126.584 64.3421C126.577 64.3488 126.572 64.3567 126.568 64.3654C126.565 64.3742 126.563 64.3835 126.563 64.393ZM62.6177 167.248L66.2754 162.95C66.2928 162.929 66.3059 162.906 66.3141 162.88C66.3222 162.855 66.3253 162.828 66.3229 162.801C66.3206 162.774 66.3131 162.748 66.3006 162.724C66.2882 162.7 66.2712 162.679 66.2506 162.662L65.392 161.93C64.7859 161.415 64.0085 161.151 63.2309 161.197C62.4533 161.243 61.7391 161.595 61.2454 162.176L61.0494 162.407C60.5557 162.987 60.3229 163.748 60.402 164.523C60.4811 165.298 60.8657 166.022 61.4713 166.538L62.3298 167.27C62.3502 167.288 62.3738 167.301 62.3993 167.309C62.4248 167.318 62.4517 167.321 62.4784 167.319C62.5052 167.317 62.5313 167.31 62.5552 167.297C62.5791 167.285 62.6003 167.268 62.6177 167.248Z" fill="#E7E3D3"/>
<path d="M55.4215 47.3253C55.4111 47.3391 55.398 47.3505 55.383 47.3591C55.3681 47.3677 55.3515 47.3732 55.3344 47.3753C55.3173 47.3774 55.2999 47.376 55.2834 47.3712C55.2668 47.3665 55.2513 47.3585 55.2379 47.3477C51.3354 44.2888 48.5098 42.0944 46.7612 40.7643C45.9009 40.1092 45.2243 40.2151 44.7313 41.0819C44.7176 41.1059 44.6989 41.1267 44.6765 41.1427C44.654 41.1588 44.6283 41.1698 44.6012 41.175C44.5741 41.1802 44.5462 41.1794 44.5193 41.1728C44.4925 41.1661 44.4675 41.1538 44.4459 41.1365L44.3566 41.072C44.3165 41.0398 44.2907 40.9932 44.2846 40.9421C44.2786 40.8911 44.2928 40.8397 44.3243 40.799C45.6925 39.0455 46.6106 37.8626 47.0788 37.2505C48.1012 35.918 49.8506 34.2454 51.6373 34.6698C52.8234 34.9527 54.4041 36.0619 54.6721 37.4391C55.0741 39.4938 53.7614 41.1837 52.4586 42.6577C52.444 42.6741 52.4329 42.6934 52.426 42.7143C52.4191 42.7353 52.4167 42.7575 52.4188 42.7796C52.4209 42.8017 52.4275 42.8232 52.4382 42.8427C52.4489 42.8623 52.4634 42.8796 52.481 42.8934L56.362 45.9084C56.3752 45.9185 56.3862 45.9311 56.3944 45.9456C56.4026 45.9601 56.4077 45.9761 56.4096 45.9928C56.4114 46.0095 56.4099 46.0264 56.4052 46.0426C56.4004 46.0588 56.3925 46.0739 56.3819 46.0871L55.4215 47.3253ZM47.2401 38.8138L51.5355 42.1589C51.5666 42.1832 51.6022 42.2011 51.6403 42.2117C51.6783 42.2222 51.7181 42.2252 51.7573 42.2203C51.7964 42.2155 51.8343 42.203 51.8686 42.1835C51.903 42.164 51.9331 42.1379 51.9574 42.1068L52.5976 41.2829C53.0845 40.6573 53.3134 39.8719 53.2338 39.0994C53.1542 38.3269 52.7728 37.6307 52.1733 37.1637L51.9276 36.9701C51.6305 36.7388 51.2887 36.5709 50.9219 36.4759C50.555 36.381 50.1703 36.3608 49.7896 36.4165C49.4089 36.4723 49.0397 36.6029 48.7032 36.801C48.3666 36.999 48.0693 37.2605 47.8282 37.5706L47.188 38.392C47.1637 38.4231 47.1457 38.4587 47.1352 38.4968C47.1246 38.5348 47.1217 38.5745 47.1265 38.6137C47.1314 38.6529 47.1439 38.6908 47.1634 38.7251C47.1829 38.7594 47.2089 38.7896 47.2401 38.8138Z" fill="#E7E3D3"/>
<path d="M199.201 51.8292C199.203 51.8474 199.255 52.0459 199.357 52.4248C199.786 53.9931 199.26 55.1585 197.779 55.9212C195.558 57.0602 193.68 55.2462 192.598 53.5141C191.996 52.5497 191.241 51.294 190.335 49.7473C190.328 49.7372 190.324 49.726 190.322 49.7142C190.32 49.7025 190.321 49.6905 190.324 49.679C190.326 49.6674 190.331 49.6565 190.338 49.6469C190.345 49.6374 190.354 49.6293 190.365 49.6232C195.144 46.7761 198.161 44.9745 199.414 44.2185C200.233 43.7247 200.817 43.0224 200.07 42.0969C200.05 42.0725 200.036 42.0443 200.028 42.0141C200.02 41.9839 200.018 41.9524 200.023 41.9215C200.028 41.8906 200.039 41.8611 200.056 41.8349C200.073 41.8087 200.095 41.7863 200.122 41.7693L200.142 41.7569C200.168 41.7394 200.198 41.7273 200.229 41.7214C200.261 41.7155 200.293 41.716 200.324 41.7227C200.355 41.7294 200.384 41.7423 200.41 41.7605C200.436 41.7787 200.458 41.802 200.474 41.8288C201.984 44.3385 202.908 45.8985 203.243 46.5089C204.042 47.9432 204.817 50.2311 203.541 51.5538C202.293 52.8441 200.65 52.8392 199.323 51.7597C199.311 51.7511 199.296 51.7461 199.282 51.7453C199.267 51.7445 199.252 51.748 199.24 51.7553C199.227 51.7627 199.216 51.7735 199.209 51.7866C199.203 51.7997 199.2 51.8145 199.201 51.8292ZM201.246 45.2409L197.382 47.5611C197.35 47.5802 197.322 47.6055 197.3 47.6355C197.278 47.6654 197.262 47.6995 197.253 47.7357C197.244 47.7719 197.242 47.8096 197.248 47.8465C197.253 47.8834 197.266 47.9188 197.285 47.9507L198.032 49.1914C198.453 49.8919 199.076 50.4323 199.762 50.6938C200.449 50.9553 201.144 50.9166 201.695 50.586L201.891 50.4694C202.164 50.3056 202.393 50.0751 202.565 49.7908C202.738 49.5066 202.85 49.1743 202.895 48.813C202.94 48.4516 202.918 48.0683 202.83 47.6849C202.741 47.3014 202.589 46.9255 202.38 46.5784L201.633 45.3377C201.594 45.2737 201.532 45.2275 201.459 45.2094C201.387 45.1913 201.31 45.2026 201.246 45.2409ZM196.345 48.2087L192.169 50.6207C192.149 50.6322 192.134 50.6496 192.125 50.6706C192.116 50.6915 192.114 50.7149 192.119 50.7374C192.43 52.0526 193.113 53.1295 194.169 53.9683C195.978 55.4075 198.608 53.6506 198.072 51.4173C197.802 50.2857 197.134 49.3006 196.479 48.2435C196.465 48.2214 196.444 48.2054 196.419 48.1989C196.394 48.1924 196.367 48.1959 196.345 48.2087Z" fill="#E7E3D3"/>
<path d="M41.1108 45.7769C41.131 45.7479 41.1611 45.7274 41.1954 45.7191C41.2297 45.7109 41.2658 45.7155 41.2969 45.7322C43.7983 47.0598 45.8405 48.1988 47.7364 49.1864C48.6909 49.6827 49.509 50.2841 50.1906 50.9905C51.9226 52.7895 50.873 55.3157 49.5379 57.2115C47.7686 59.7228 45.173 59.0379 42.895 57.8021C41.0091 56.7798 39.4267 55.9369 38.1479 55.2735C37.1917 54.7789 36.5399 54.9906 36.1925 55.9088C36.1805 55.94 36.1615 55.9682 36.137 55.991C36.1125 56.0138 36.0831 56.0308 36.051 56.0406C36.019 56.0504 35.9851 56.0528 35.952 56.0476C35.9189 56.0424 35.8875 56.0297 35.86 56.0105L35.7756 55.9509C35.7463 55.93 35.7252 55.8993 35.7161 55.8644C35.7071 55.8295 35.7105 55.7925 35.726 55.7599C36.2041 54.8037 36.5862 54.1279 36.8724 53.7325C37.3861 53.0203 38.3291 53.2982 39.0363 53.6779C41.6584 55.0841 43.5964 56.1156 44.8504 56.7723C46.4286 57.5986 48.2575 57.5986 49.327 55.9509C50.9722 53.4049 50.2427 51.6208 47.7661 50.1865C47.1309 49.8192 44.8289 48.5785 40.8602 46.4642C40.8388 46.4527 40.82 46.4368 40.8052 46.4176C40.7903 46.3984 40.7798 46.3763 40.7741 46.3528C40.7685 46.3293 40.7679 46.305 40.7725 46.2814C40.7771 46.2579 40.7867 46.2356 40.8006 46.2161L41.1108 45.7769Z" fill="#E7E3D3"/>
<path d="M197.474 63.2292L196.911 61.7874C196.899 61.7554 196.9 61.7201 196.913 61.6891C196.927 61.6581 196.951 61.6337 196.983 61.6212C203.044 59.2522 206.279 57.9883 206.688 57.8294C207.737 57.4126 208.288 56.9163 207.757 55.74C207.747 55.7186 207.742 55.6954 207.742 55.6719C207.741 55.6484 207.745 55.625 207.754 55.6032C207.763 55.5814 207.776 55.5616 207.793 55.545C207.81 55.5284 207.83 55.5154 207.851 55.5068L207.956 55.4671C208 55.4504 208.049 55.4515 208.092 55.47C208.135 55.4886 208.169 55.5231 208.186 55.5663C209.1 57.8907 209.715 59.4738 210.033 60.3159C210.416 61.3383 210.569 62.3714 210.492 63.4153C210.385 64.8645 209.4 65.6312 208.005 66.0357C206.459 66.4849 205.209 65.5493 204.36 64.3409C204.352 64.3294 204.342 64.3201 204.33 64.3135C204.317 64.307 204.304 64.3034 204.29 64.3032C204.276 64.3029 204.262 64.306 204.25 64.3121C204.238 64.3182 204.227 64.3272 204.219 64.3384C203.626 65.0994 202.946 65.9753 202.179 66.9663C201.278 68.1326 200.558 69.0259 200.754 70.3808C200.762 70.4349 200.751 70.4899 200.724 70.5374C200.697 70.5848 200.655 70.622 200.605 70.6432C200.555 70.6644 200.499 70.6684 200.446 70.6546C200.393 70.6408 200.346 70.61 200.313 70.5669C199.317 69.2534 199.33 67.8753 200.352 66.4327C201.087 65.3971 202.092 64.0993 203.367 62.5393C203.395 62.5054 203.414 62.4648 203.421 62.4216C203.428 62.3783 203.423 62.3342 203.407 62.2936L203.042 61.3556C203.028 61.3183 202.999 61.2882 202.963 61.2719C202.927 61.2556 202.886 61.2545 202.849 61.2688L197.643 63.3036C197.627 63.31 197.61 63.3131 197.592 63.3128C197.575 63.3125 197.558 63.3088 197.543 63.3019C197.527 63.2949 197.513 63.2849 197.501 63.2724C197.489 63.2599 197.48 63.2452 197.474 63.2292ZM208.412 59.09L203.96 60.842C203.925 60.8559 203.892 60.8769 203.864 60.9035C203.836 60.9302 203.814 60.9621 203.799 60.9973C203.783 61.0326 203.775 61.0705 203.774 61.109C203.773 61.1475 203.78 61.1858 203.794 61.2216L204.166 62.1621C204.462 62.9135 205.003 63.533 205.669 63.8843C206.336 64.2356 207.073 64.2901 207.72 64.0356L207.839 63.9885C208.159 63.8624 208.448 63.6643 208.687 63.4054C208.927 63.1464 209.114 62.8318 209.237 62.4795C209.36 62.1271 209.416 61.7439 209.403 61.3519C209.39 60.9598 209.308 60.5664 209.162 60.1943L208.792 59.2538C208.763 59.1818 208.707 59.1242 208.636 59.0935C208.565 59.0628 208.484 59.0615 208.412 59.09Z" fill="#E7E3D3"/>
<path d="M161.897 98.5332C161.883 98.5363 161.871 98.5426 161.86 98.5516C161.849 98.5605 161.841 98.5718 161.835 98.5846C161.83 98.5974 161.827 98.6112 161.828 98.6252C161.829 98.6391 161.833 98.6526 161.84 98.6647C165.332 104.471 169.259 111.015 173.619 118.296C174.959 120.531 176.408 122.62 177.964 124.564C180.585 127.837 183.85 129.986 188.069 130.443C188.112 130.447 188.151 130.468 188.179 130.499C188.207 130.531 188.223 130.572 188.223 130.614V132.572C188.223 132.624 188.206 132.675 188.175 132.718C188.144 132.76 188.1 132.792 188.049 132.807C185.288 133.704 182.47 134.012 179.595 133.73C175.255 133.309 171.691 131.182 168.83 127.986C166.613 125.509 164.524 122.615 162.562 119.303C158.679 112.752 154.946 106.415 151.363 100.293C151.103 99.8475 150.882 99.4869 150.7 99.2106C150.679 99.1785 150.65 99.1521 150.616 99.134C150.582 99.1158 150.543 99.1063 150.504 99.1064H144.66C144.638 99.1063 144.615 99.1017 144.594 99.0927C144.573 99.0838 144.555 99.0707 144.539 99.0543C144.38 98.8921 144.292 98.7507 144.276 98.6299C144.27 98.5904 144.279 98.55 144.302 98.5168C144.325 98.4837 144.36 98.4603 144.4 98.4513C147.503 97.7565 150.403 96.6464 153.097 95.1211C153.181 95.0735 153.272 95.0416 153.365 95.0268C157.954 94.2725 161.979 92.4337 165.051 88.9025C168.103 85.3937 168.862 80.6169 167.949 76.1477C167.61 74.4951 166.986 73.0086 166.076 71.6885C163.103 67.3732 158.281 64.7652 153.125 64.0108C152.998 63.9927 152.875 63.9559 152.76 63.9016C149.733 62.5021 146.57 61.4822 143.271 60.8419C143.215 60.8304 143.166 60.7978 143.134 60.7509C143.102 60.7041 143.089 60.6468 143.1 60.5913C143.126 60.449 143.127 60.3159 143.102 60.1918C143.097 60.1659 143.098 60.1392 143.104 60.1136C143.11 60.0879 143.122 60.064 143.139 60.0434C143.155 60.0229 143.176 60.0062 143.2 59.9945C143.223 59.9828 143.249 59.9765 143.276 59.9759C144.871 59.9362 148.083 59.937 152.914 59.9784C158.658 60.028 164.306 61.2291 169.579 63.5219C173.49 65.2218 176.411 67.7008 177.932 71.4925C179.235 74.7333 179.523 78.1776 179.309 81.6392C179.041 85.9446 177.543 89.9398 174.193 92.7066C170.681 95.61 166.351 97.5207 161.897 98.5332Z" fill="#E7E3D3"/>
<path d="M102.924 97.9202C102.909 97.925 102.896 97.9349 102.887 97.9482C102.878 97.9616 102.874 97.9777 102.875 97.9939C102.877 98.0102 102.884 98.0257 102.895 98.038C102.906 98.0503 102.921 98.0586 102.937 98.0617C105.121 98.424 107.201 98.9186 109.178 99.5456C111.573 100.305 113.654 101.323 115.419 102.6C119.158 105.305 121.059 109.782 121.379 114.397C121.91 122.073 119.563 128.807 112.513 132.386C107.198 135.083 101.106 136.403 95.0383 136.82C93.2864 136.941 91.7776 137.002 90.5121 137.004C82.9138 137.018 75.1244 137.019 67.144 137.006C67.1247 137.006 67.1057 137.002 67.088 136.995C67.0702 136.987 67.054 136.976 67.0405 136.962C67.0269 136.949 67.0161 136.932 67.0087 136.914C67.0014 136.896 66.9976 136.877 66.9976 136.857C67.0009 130.281 67.0009 109.716 66.9976 75.1626C66.9976 74.1716 66.9314 72.9723 66.7991 71.5644C66.5931 69.3658 65.9181 66.2019 63.8957 64.9066C61.8212 63.579 59.1759 63.5691 56.7689 63.7081C56.7604 63.7088 56.7518 63.7076 56.7437 63.7047C56.7356 63.7017 56.7282 63.6971 56.7219 63.691C56.7156 63.685 56.7105 63.6776 56.7071 63.6694C56.7037 63.6613 56.7019 63.6525 56.7019 63.6435V61.3779C56.7019 61.3654 56.7069 61.3535 56.7157 61.3446C56.7246 61.3358 56.7365 61.3308 56.7491 61.3308C72.4535 61.3176 82.5697 61.3209 87.0976 61.3407C94.5693 61.373 102.666 62.6435 109.096 65.9017C114.007 68.3906 116.657 72.8325 117.25 78.1379C117.454 79.9667 117.55 81.8204 117.302 83.5128C116.163 91.2227 109.828 95.5479 102.924 97.9202ZM77.4744 96.2626C79.4083 96.2461 82.5292 96.2477 86.837 96.2676C89.0852 96.2775 90.7842 96.1832 91.934 95.9847C99.098 94.7514 105.652 90.2674 106.421 82.4929C106.781 78.8426 105.974 75.2445 103.562 72.4156C100.726 69.0854 96.8151 67.1573 92.4749 66.1747C87.5004 65.0481 82.4812 65.1829 77.4173 66.5791C77.4009 66.5835 77.3864 66.5932 77.3761 66.6067C77.3658 66.6201 77.3602 66.6366 77.3602 66.6536V96.1485C77.3602 96.1787 77.3723 96.2078 77.3937 96.2292C77.4151 96.2506 77.4441 96.2626 77.4744 96.2626ZM77.3602 101.087V131.212C77.3601 131.243 77.3702 131.273 77.3889 131.298C77.4077 131.323 77.4342 131.341 77.4645 131.351C81.6466 132.572 85.8816 133.084 90.1696 132.887C97.6488 132.542 106.6 130.249 109.17 122.115C110.051 119.333 110.151 116.206 109.597 113.353C107.659 103.392 97.2841 100.943 88.5889 100.913C84.7658 100.9 81.0825 100.898 77.5389 100.908C77.5154 100.908 77.4922 100.913 77.4705 100.922C77.4489 100.931 77.4292 100.944 77.4126 100.96C77.396 100.977 77.3828 100.997 77.3738 101.018C77.3649 101.04 77.3602 101.063 77.3602 101.087Z" fill="#E7E3D3"/>
<path d="M31.5521 66.1325C32.7259 62.4351 36.4258 61.3904 39.8155 62.4673C43.2027 63.5443 45.6221 66.532 44.4484 70.2294C43.2746 73.9243 39.5748 74.969 36.185 73.8921C32.7953 72.8176 30.3784 69.8274 31.5521 66.1325ZM36.793 71.9863C39.2025 72.7481 42.6865 72.9615 43.6369 69.9664C44.5873 66.9712 41.617 65.1349 39.21 64.3706C36.8005 63.6063 33.3165 63.3954 32.366 66.3905C31.4156 69.3857 34.386 71.222 36.793 71.9863Z" fill="#E7E3D3"/>
<path d="M201.583 75.7383L201.261 74.2246C201.254 74.1906 201.261 74.1555 201.279 74.1267C201.298 74.0979 201.327 74.0778 201.36 74.0707C207.718 72.7158 211.11 71.9929 211.537 71.9019C212.641 71.6637 213.264 71.2617 212.929 70.016C212.922 69.9931 212.921 69.9693 212.924 69.9458C212.927 69.9224 212.935 69.8999 212.948 69.8796C212.96 69.8594 212.976 69.8419 212.996 69.8283C213.015 69.8146 213.037 69.805 213.06 69.8001L213.169 69.7777C213.216 69.768 213.265 69.7769 213.305 69.8025C213.345 69.828 213.373 69.8682 213.383 69.9142C213.906 72.3527 214.256 74.0128 214.435 74.8946C214.648 75.9649 214.632 77.008 214.385 78.0237C214.045 79.4357 212.951 80.0312 211.509 80.2049C209.916 80.3985 208.834 79.2744 208.191 77.9468C208.186 77.9342 208.177 77.9231 208.166 77.9144C208.155 77.9058 208.143 77.8999 208.129 77.8973C208.115 77.8946 208.101 77.8952 208.088 77.8991C208.075 77.9029 208.063 77.9099 208.053 77.9195C207.346 78.5746 206.535 79.3281 205.618 80.1801C204.541 81.1826 203.688 81.9494 203.66 83.3167C203.658 83.3704 203.637 83.4218 203.603 83.4631C203.569 83.5044 203.522 83.5334 203.469 83.5457C203.417 83.558 203.362 83.553 203.313 83.5314C203.264 83.5098 203.223 83.4727 203.196 83.4259C202.427 81.9701 202.663 80.6144 203.903 79.3588C204.795 78.4555 205.995 77.3388 207.504 76.0088C207.537 75.9799 207.562 75.9429 207.576 75.9014C207.59 75.8599 207.593 75.8156 207.584 75.773L207.375 74.7903C207.371 74.7708 207.363 74.7522 207.352 74.7357C207.34 74.7193 207.326 74.7052 207.309 74.6944C207.293 74.6835 207.274 74.6761 207.255 74.6726C207.235 74.669 207.216 74.6694 207.196 74.6737L201.737 75.8375C201.721 75.8412 201.703 75.8415 201.687 75.8385C201.67 75.8354 201.654 75.8291 201.64 75.8199C201.625 75.8107 201.613 75.7987 201.603 75.7847C201.594 75.7707 201.587 75.7549 201.583 75.7383ZM213.038 73.4255L208.358 74.4206C208.281 74.4373 208.214 74.4837 208.171 74.5497C208.128 74.6157 208.113 74.696 208.129 74.773L208.333 75.7333C208.417 76.1274 208.566 76.5035 208.772 76.8403C208.978 77.177 209.237 77.4678 209.534 77.6959C209.831 77.924 210.16 78.0851 210.503 78.1699C210.846 78.2546 211.195 78.2615 211.532 78.19L211.671 78.1602C212.007 78.0887 212.324 77.9403 212.602 77.7234C212.881 77.5065 213.117 77.2254 213.295 76.8961C213.474 76.5668 213.592 76.1957 213.643 75.8042C213.694 75.4127 213.678 75.0083 213.594 74.6142L213.39 73.6538C213.374 73.5769 213.327 73.5098 213.261 73.467C213.195 73.4242 213.115 73.4093 213.038 73.4255Z" fill="#E7E3D3"/>
<path d="M40.6914 86.0314L40.4879 87.565C40.4829 87.5995 40.4647 87.6306 40.4373 87.6516C40.4098 87.6725 40.3754 87.6815 40.3415 87.6767C33.8979 86.8081 30.4594 86.3449 30.026 86.287C28.9093 86.1406 28.1847 86.3069 28.0805 87.5923C28.0787 87.6158 28.0721 87.6388 28.0611 87.6597C28.0501 87.6806 28.035 87.699 28.0167 87.7139C27.9983 87.7287 27.9771 87.7397 27.9544 87.7461C27.9317 87.7525 27.9079 87.7542 27.8845 87.7511L27.7753 87.7362C27.7517 87.7331 27.7289 87.7255 27.7083 87.7137C27.6876 87.7019 27.6695 87.6862 27.655 87.6675C27.6405 87.6489 27.6298 87.6276 27.6237 87.6049C27.6175 87.5822 27.6159 87.5585 27.619 87.5352C27.9482 85.0637 28.1781 83.3821 28.3088 82.4904C28.4676 81.4118 28.8341 80.4349 29.4081 79.5597C30.2071 78.3463 31.438 78.1552 32.8524 78.4778C34.4207 78.8327 35.0609 80.257 35.2148 81.7236C35.2162 81.7375 35.2209 81.7508 35.2286 81.7625C35.2362 81.7741 35.2466 81.7838 35.2588 81.7906C35.2709 81.7974 35.2846 81.8012 35.2985 81.8016C35.3124 81.8021 35.3263 81.7991 35.3389 81.7931C36.2239 81.4159 37.2421 80.98 38.3936 80.4853C39.746 79.9071 40.808 79.4729 41.2919 78.1949C41.3117 78.1441 41.3478 78.1011 41.3945 78.0728C41.4411 78.0445 41.4959 78.0324 41.5501 78.0383C41.6044 78.0443 41.6552 78.0679 41.6946 78.1057C41.7341 78.1434 41.76 78.1931 41.7684 78.247C42.0016 79.8765 41.3225 81.0734 39.7311 81.8377C38.5863 82.387 37.0792 83.0346 35.2098 83.7807C35.1691 83.7966 35.1334 83.8229 35.1064 83.8569C35.0794 83.8909 35.062 83.9315 35.056 83.9743L34.922 84.9694C34.9191 84.9891 34.9201 85.0092 34.925 85.0285C34.9298 85.0478 34.9383 85.066 34.9501 85.0819C34.9619 85.0978 34.9766 85.1112 34.9935 85.1212C35.0104 85.1313 35.0291 85.1379 35.0485 85.1406L40.5822 85.885C40.599 85.8875 40.6152 85.8932 40.6297 85.9019C40.6443 85.9105 40.657 85.922 40.6672 85.9356C40.6773 85.9492 40.6847 85.9647 40.6888 85.9811C40.693 85.9976 40.6939 86.0147 40.6914 86.0314ZM29.0607 84.349L33.9641 84.9867C34.0213 84.9938 34.079 84.9779 34.1246 84.9426C34.1701 84.9072 34.1999 84.8553 34.2073 84.7982L34.3487 83.7212C34.4003 83.3237 34.384 82.9213 34.3006 82.5371C34.2173 82.1529 34.0686 81.7943 33.8631 81.4818C33.6576 81.1693 33.3992 80.9091 33.1027 80.716C32.8063 80.5229 32.4775 80.4007 32.1353 80.3563L32.0112 80.3389C31.3204 80.2496 30.6166 80.4825 30.0545 80.9865C29.4924 81.4904 29.118 82.2241 29.0136 83.0264L28.8721 84.1058C28.8651 84.163 28.881 84.2207 28.9163 84.2663C28.9516 84.3118 29.0035 84.3416 29.0607 84.349Z" fill="#E7E3D3"/>
<path d="M33.783 92.0887C33.8177 92.9242 34.3645 93.3237 35.4232 93.2873C36.4423 93.2526 37.6566 93.2005 39.066 93.131C39.1417 93.1272 39.2169 93.1451 39.2828 93.1824C39.3487 93.2198 39.4026 93.2751 39.4383 93.3419C40.751 95.7986 41.2398 98.9327 39.8576 101.317C38.4879 103.682 35.9369 104.769 33.2445 104.672C30.356 104.566 27.6835 102.772 27.2641 99.7218C27.006 97.8458 27.2269 95.5107 28.5793 94.2278C29.0682 93.7638 30.3486 93.6819 30.9491 93.657C31.0147 93.6536 31.0792 93.6748 31.1299 93.7165C31.1807 93.7582 31.214 93.8174 31.2233 93.8824C31.2326 93.9474 31.2173 94.0135 31.1804 94.0678C31.1434 94.1221 31.0875 94.1605 31.0236 94.1757C29.0781 94.6687 28.0673 95.916 27.9912 97.9178C27.8051 102.853 33.6167 103.293 36.9295 102.161C40.0065 101.109 40.5078 97.6671 39.1256 95.0591C39.1045 95.021 39.0734 94.9894 39.0358 94.9679C38.9981 94.9465 38.9553 94.9359 38.9122 94.9375C38.2124 94.9706 37.2843 95.0136 36.128 95.0665C34.7309 95.131 33.917 94.9251 33.5423 93.5429C33.3917 92.9887 33.3231 92.4932 33.3363 92.0565C33.3372 92.0319 33.3435 92.0078 33.3547 91.986C33.3659 91.9641 33.3817 91.9449 33.4011 91.9298C33.4205 91.9146 33.4429 91.9039 33.4669 91.8984C33.4909 91.8928 33.5157 91.8926 33.5398 91.8977L33.6465 91.9225C33.6841 91.9312 33.7178 91.9522 33.7425 91.9822C33.7671 92.0122 33.7814 92.0497 33.783 92.0887Z" fill="#E7E3D3"/>
<path d="M209.906 105.715L209.802 105.682C209.765 105.67 209.733 105.646 209.711 105.614C209.689 105.582 209.678 105.543 209.68 105.504C209.72 104.668 209.211 104.222 208.154 104.164C207.135 104.109 205.92 104.054 204.509 103.997C204.433 103.994 204.36 103.97 204.297 103.927C204.235 103.884 204.186 103.824 204.157 103.754C203.067 101.191 202.859 98.0245 204.447 95.7713C206.02 93.5355 208.658 92.6794 211.333 93.0144C214.202 93.3767 216.705 95.4015 216.852 98.4761C216.944 100.369 216.517 102.675 215.055 103.834C214.527 104.253 213.244 104.221 212.643 104.193C212.577 104.191 212.514 104.165 212.467 104.119C212.42 104.072 212.392 104.01 212.388 103.944C212.385 103.878 212.406 103.813 212.449 103.763C212.491 103.712 212.55 103.679 212.616 103.67C214.598 103.351 215.715 102.197 215.968 100.211C216.591 95.3097 210.839 94.3568 207.44 95.1906C204.281 95.9648 203.477 99.3496 204.621 102.072C204.638 102.112 204.667 102.146 204.703 102.17C204.739 102.195 204.781 102.209 204.824 102.211C205.524 102.241 206.452 102.28 207.608 102.33C209.005 102.389 209.799 102.667 210.05 104.077C210.151 104.643 210.175 105.142 210.122 105.576C210.119 105.6 210.11 105.623 210.097 105.644C210.084 105.664 210.067 105.682 210.046 105.695C210.026 105.708 210.002 105.717 209.978 105.72C209.954 105.724 209.93 105.722 209.906 105.715Z" fill="#E7E3D3"/>
<path d="M202.276 110.938L202.613 109.429C202.621 109.396 202.641 109.366 202.67 109.348C202.699 109.329 202.734 109.323 202.767 109.33C209.11 110.759 212.494 111.521 212.921 111.616C214.023 111.861 214.757 111.757 214.973 110.484C214.977 110.461 214.986 110.438 214.999 110.419C215.012 110.399 215.029 110.382 215.049 110.369C215.069 110.356 215.091 110.347 215.114 110.343C215.137 110.339 215.161 110.34 215.184 110.345L215.291 110.37C215.338 110.381 215.378 110.409 215.404 110.449C215.429 110.489 215.438 110.537 215.427 110.583C214.885 113.017 214.509 114.672 214.301 115.549C214.048 116.609 213.597 117.55 212.948 118.37C212.05 119.509 210.807 119.594 209.425 119.147C207.894 118.658 207.382 117.184 207.355 115.71C207.355 115.696 207.352 115.682 207.345 115.67C207.339 115.657 207.33 115.647 207.318 115.639C207.307 115.631 207.294 115.625 207.28 115.624C207.266 115.622 207.252 115.623 207.239 115.628C206.322 115.926 205.27 116.271 204.082 116.663C202.683 117.122 201.588 117.462 200.993 118.693C200.968 118.741 200.928 118.78 200.88 118.804C200.831 118.828 200.776 118.835 200.722 118.824C200.669 118.813 200.621 118.786 200.585 118.745C200.549 118.704 200.528 118.653 200.524 118.598C200.433 116.954 201.214 115.822 202.866 115.201C204.054 114.753 205.612 114.239 207.541 113.66C207.583 113.648 207.621 113.624 207.651 113.592C207.68 113.561 207.701 113.521 207.71 113.479L207.931 112.499C207.939 112.46 207.932 112.42 207.911 112.386C207.89 112.353 207.857 112.329 207.819 112.32L202.372 111.094C202.356 111.091 202.34 111.084 202.326 111.074C202.312 111.064 202.3 111.051 202.291 111.037C202.282 111.022 202.276 111.006 202.274 110.989C202.271 110.972 202.272 110.955 202.276 110.938ZM213.628 113.626L208.842 112.549C208.803 112.54 208.763 112.547 208.73 112.567C208.697 112.588 208.672 112.622 208.663 112.66C208.481 113.401 208.376 113.892 208.348 114.132C208.191 115.469 208.767 116.854 210.125 117.278C212.311 117.966 213.916 115.814 213.77 113.789C213.767 113.75 213.752 113.714 213.726 113.684C213.701 113.654 213.666 113.634 213.628 113.626Z" fill="#E7E3D3"/>
<path d="M44.4658 121.035L44.9199 122.514C44.9294 122.547 44.926 122.583 44.9102 122.613C44.8944 122.643 44.8676 122.665 44.8355 122.676C38.6252 124.585 35.3116 125.604 34.8947 125.733C33.8177 126.068 33.2321 126.519 33.6738 127.733C33.6819 127.755 33.6855 127.778 33.6842 127.802C33.6829 127.825 33.6769 127.849 33.6665 127.87C33.656 127.891 33.6414 127.91 33.6234 127.925C33.6055 127.94 33.5846 127.952 33.5621 127.959L33.4579 127.991C33.4121 128.005 33.3626 128.001 33.3202 127.979C33.2779 127.957 33.2462 127.919 33.2321 127.874C32.4959 125.492 32.0004 123.87 31.7457 123.008C31.4396 121.961 31.3635 120.921 31.5174 119.889C31.7333 118.452 32.7705 117.762 34.1899 117.464C35.7607 117.129 36.9369 118.154 37.6913 119.42C37.6983 119.432 37.7081 119.442 37.7198 119.449C37.7316 119.457 37.745 119.461 37.7588 119.463C37.7727 119.464 37.7866 119.462 37.7995 119.456C37.8124 119.451 37.8238 119.443 37.8328 119.432C38.4796 118.719 39.2216 117.898 40.0586 116.968C41.0413 115.874 41.8255 115.038 41.7312 113.675C41.7282 113.621 41.7432 113.567 41.7738 113.522C41.8044 113.477 41.8489 113.443 41.9005 113.426C41.9521 113.409 42.0079 113.409 42.0594 113.427C42.1108 113.445 42.1551 113.479 42.1853 113.524C43.0786 114.905 42.9628 116.275 41.8379 117.633C41.0289 118.611 39.9321 119.829 38.5474 121.288C38.5173 121.32 38.4961 121.359 38.4861 121.401C38.4761 121.444 38.4775 121.488 38.4904 121.529L38.7832 122.489C38.7889 122.509 38.7984 122.527 38.811 122.542C38.8237 122.558 38.8392 122.571 38.8568 122.58C38.8743 122.59 38.8935 122.596 38.9133 122.597C38.933 122.599 38.9529 122.597 38.9718 122.591L44.3045 120.951C44.337 120.941 44.3723 120.944 44.4025 120.96C44.4328 120.976 44.4555 121.003 44.4658 121.035ZM33.2544 124.353L37.8476 122.931C37.9168 122.909 37.9747 122.861 38.0086 122.797C38.0425 122.733 38.0498 122.658 38.0288 122.589L37.7186 121.581C37.4822 120.819 36.9965 120.169 36.3684 119.773C35.7402 119.377 35.0209 119.268 34.3686 119.469L34.1676 119.531C33.5158 119.734 32.9846 120.231 32.6905 120.912C32.3965 121.594 32.3637 122.405 32.5993 123.167L32.9095 124.172C32.9202 124.206 32.9377 124.238 32.9609 124.266C32.984 124.294 33.0124 124.317 33.0444 124.334C33.0765 124.351 33.1115 124.361 33.1475 124.364C33.1836 124.368 33.2199 124.364 33.2544 124.353Z" fill="#E7E3D3"/>
<path d="M205.698 123.43C208.978 124.797 211.127 127.986 209.636 131.567C208.142 135.147 204.365 135.865 201.082 134.497C197.799 133.128 195.65 129.939 197.144 126.358C198.635 122.78 202.415 122.06 205.698 123.43ZM204.926 125.271C202.593 124.296 199.139 123.777 197.926 126.678C196.715 129.579 199.511 131.671 201.844 132.646C204.176 133.619 207.631 134.14 208.844 131.239C210.055 128.338 207.256 126.246 204.926 125.271Z" fill="#E7E3D3"/>
<path d="M49.667 133.127L50.3568 134.515C50.3719 134.546 50.3743 134.581 50.3636 134.614C50.353 134.646 50.33 134.673 50.2997 134.688C44.4683 137.585 41.3565 139.131 40.9644 139.326C39.9544 139.832 39.4482 140.376 40.0835 141.502C40.095 141.523 40.1022 141.546 40.1047 141.569C40.1072 141.593 40.1049 141.616 40.0979 141.639C40.091 141.661 40.0795 141.682 40.0642 141.7C40.0489 141.718 40.0302 141.733 40.009 141.743L39.9098 141.793C39.8669 141.814 39.8175 141.817 39.7724 141.802C39.7273 141.788 39.6902 141.756 39.6691 141.713C38.5541 139.478 37.8005 137.955 37.4084 137.143C36.9353 136.158 36.6913 135.142 36.6764 134.095C36.6566 132.641 37.5697 131.79 38.9246 131.264C40.4234 130.678 41.7535 131.5 42.7064 132.629C42.7152 132.639 42.7265 132.648 42.7392 132.653C42.752 132.659 42.7658 132.661 42.7797 132.66C42.7936 132.659 42.807 132.655 42.8188 132.648C42.8307 132.641 42.8406 132.631 42.8479 132.619C43.3706 131.808 43.9703 130.875 44.6469 129.82C45.4435 128.579 46.0812 127.624 45.7661 126.291C45.7539 126.238 45.7598 126.182 45.7826 126.132C45.8055 126.083 45.8441 126.042 45.8925 126.016C45.9408 125.991 45.9963 125.982 46.0501 125.991C46.104 126.001 46.1533 126.027 46.1904 126.068C47.2988 127.289 47.4072 128.662 46.5155 130.189C45.8753 131.288 44.9885 132.671 43.8553 134.338C43.8306 134.375 43.816 134.417 43.8129 134.46C43.8099 134.504 43.8185 134.547 43.838 134.587L44.2846 135.487C44.2935 135.505 44.3057 135.521 44.3206 135.534C44.3354 135.548 44.3527 135.558 44.3714 135.564C44.3901 135.571 44.4098 135.573 44.4294 135.572C44.449 135.571 44.4681 135.566 44.4856 135.557L49.4933 133.068C49.5086 133.06 49.5252 133.056 49.5422 133.055C49.5593 133.054 49.5764 133.056 49.5926 133.061C49.6087 133.067 49.6236 133.076 49.6364 133.087C49.6492 133.098 49.6595 133.112 49.667 133.127ZM39.1033 138.259L43.4682 136.046C43.495 136.032 43.5188 136.013 43.5382 135.99C43.5577 135.968 43.5725 135.941 43.5817 135.912C43.5909 135.884 43.5944 135.854 43.592 135.824C43.5895 135.794 43.5812 135.765 43.5675 135.738L43.0389 134.696C42.6848 133.998 42.1005 133.454 41.4146 133.181C40.7287 132.909 39.9973 132.932 39.3812 133.244L39.2571 133.306C38.9517 133.461 38.6837 133.682 38.4686 133.957C38.2535 134.233 38.0955 134.557 38.0036 134.911C37.9116 135.265 37.8875 135.642 37.9327 136.02C37.978 136.399 38.0916 136.772 38.267 137.118L38.7956 138.16C38.8092 138.187 38.828 138.21 38.8509 138.23C38.8738 138.249 38.9003 138.264 38.9288 138.273C38.9574 138.283 38.9875 138.286 39.0175 138.284C39.0474 138.281 39.0766 138.273 39.1033 138.259Z" fill="#E7E3D3"/>
<path d="M198.119 151.034C195.744 149.488 193.811 148.173 192.01 147.019C191.103 146.44 190.342 145.767 189.727 145.001C188.161 143.056 189.431 140.632 190.93 138.862C192.918 136.517 195.444 137.43 197.603 138.865C199.391 140.052 200.892 141.034 202.107 141.808C203.017 142.387 203.685 142.234 204.112 141.349C204.126 141.318 204.148 141.292 204.175 141.271C204.201 141.25 204.232 141.235 204.265 141.228C204.298 141.221 204.333 141.222 204.365 141.231C204.398 141.239 204.429 141.255 204.454 141.277L204.531 141.344C204.559 141.367 204.577 141.4 204.583 141.436C204.589 141.472 204.582 141.509 204.563 141.54C204.003 142.45 203.562 143.089 203.241 143.458C202.665 144.12 201.752 143.761 201.079 143.319C198.593 141.684 196.754 140.484 195.563 139.718C194.064 138.753 192.24 138.589 191.029 140.138C189.163 142.527 189.732 144.369 192.069 146.019C192.67 146.442 194.853 147.884 198.62 150.344C198.641 150.357 198.658 150.375 198.671 150.395C198.684 150.416 198.693 150.439 198.696 150.463C198.7 150.487 198.698 150.511 198.692 150.534C198.685 150.558 198.673 150.579 198.658 150.597L198.308 151.007C198.285 151.033 198.253 151.051 198.218 151.056C198.184 151.061 198.148 151.053 198.119 151.034Z" fill="#E7E3D3"/>
<path d="M48.9523 144.629C48.949 144.611 48.8795 144.417 48.7438 144.048C48.1814 142.525 48.6049 141.319 50.0144 140.43C52.1261 139.103 54.1535 140.748 55.3818 142.378C56.065 143.287 56.9253 144.472 57.9625 145.934C57.9762 145.954 57.9818 145.977 57.9781 146.001C57.9744 146.024 57.9617 146.045 57.9427 146.058C53.4297 149.309 50.5818 151.365 49.399 152.225C48.6272 152.788 48.1061 153.538 48.93 154.396C48.9516 154.419 48.9682 154.445 48.9789 154.475C48.9896 154.504 48.994 154.535 48.9919 154.566C48.9898 154.597 48.9812 154.628 48.9667 154.655C48.9522 154.683 48.9321 154.707 48.9076 154.726L48.8878 154.741C48.8626 154.761 48.8338 154.775 48.8031 154.784C48.7724 154.792 48.7403 154.794 48.7088 154.79C48.6773 154.786 48.6471 154.776 48.6199 154.76C48.5926 154.743 48.569 154.722 48.5503 154.697C46.8298 152.329 45.7752 150.856 45.3864 150.277C44.4682 148.917 43.498 146.706 44.6544 145.279C45.7859 143.885 47.4212 143.748 48.8357 144.709C48.8483 144.717 48.8631 144.721 48.878 144.72C48.893 144.72 48.9076 144.716 48.92 144.707C48.9324 144.699 48.9421 144.687 48.9478 144.673C48.9535 144.659 48.9551 144.644 48.9523 144.629ZM52.1956 147.964L56.0171 145.202C56.0525 145.177 56.0784 145.14 56.0905 145.098C56.1027 145.056 56.1004 145.012 56.0841 144.972C55.5927 143.743 54.4215 142.043 53.0591 141.726C52.5215 141.6 52.0914 141.609 51.7688 141.753C50.0119 142.539 49.5495 143.827 50.3816 145.617C50.5553 145.992 51.0797 146.762 51.9549 147.927C51.9682 147.945 51.9849 147.961 52.0043 147.973C52.0236 147.985 52.0451 147.992 52.0675 147.996C52.0898 147.999 52.1127 147.998 52.1347 147.993C52.1567 147.988 52.1774 147.978 52.1956 147.964ZM47.4336 151.418L51.198 148.671C51.2414 148.639 51.2704 148.591 51.2788 148.538C51.2871 148.485 51.2742 148.43 51.2427 148.386L50.337 147.143C49.8574 146.485 49.1901 146.006 48.4818 145.81C47.7736 145.614 47.0823 145.718 46.5601 146.098L46.3988 146.215C45.877 146.596 45.5671 147.222 45.5374 147.957C45.5076 148.691 45.7603 149.473 46.24 150.131L47.1458 151.374C47.1617 151.396 47.1818 151.414 47.205 151.428C47.2281 151.442 47.2537 151.452 47.2804 151.456C47.3072 151.46 47.3345 151.459 47.3607 151.452C47.387 151.446 47.4118 151.434 47.4336 151.418Z" fill="#E7E3D3"/>
<path d="M184.181 148.193C184.192 148.18 184.206 148.17 184.222 148.162C184.237 148.155 184.254 148.151 184.271 148.15C184.288 148.15 184.305 148.152 184.321 148.158C184.337 148.164 184.352 148.173 184.364 148.185C187.986 151.57 190.61 154.002 192.238 155.481C193.037 156.207 193.719 156.16 194.285 155.339C194.301 155.316 194.321 155.297 194.345 155.283C194.369 155.269 194.396 155.26 194.423 155.257C194.451 155.254 194.479 155.257 194.505 155.266C194.532 155.275 194.556 155.29 194.576 155.309L194.657 155.381C194.695 155.417 194.716 155.466 194.718 155.518C194.719 155.569 194.7 155.619 194.665 155.657C193.151 157.285 192.135 158.382 191.615 158.95C190.479 160.188 188.593 161.704 186.851 161.126C185.692 160.741 184.215 159.498 184.066 158.104C183.846 156.024 185.3 154.453 186.727 153.098C186.742 153.083 186.755 153.065 186.763 153.045C186.772 153.025 186.776 153.003 186.776 152.981C186.776 152.959 186.771 152.937 186.762 152.917C186.753 152.896 186.74 152.878 186.724 152.863L183.121 149.52C183.109 149.509 183.099 149.496 183.092 149.481C183.085 149.466 183.082 149.449 183.081 149.433C183.081 149.416 183.083 149.399 183.089 149.384C183.095 149.368 183.105 149.354 183.116 149.341L184.181 148.193ZM191.593 157.386L187.605 153.682C187.576 153.655 187.543 153.634 187.506 153.62C187.469 153.606 187.43 153.6 187.391 153.601C187.352 153.603 187.313 153.612 187.278 153.628C187.242 153.645 187.21 153.668 187.183 153.696L186.456 154.481C185.921 155.057 185.629 155.816 185.646 156.59C185.663 157.365 185.986 158.092 186.545 158.612L186.751 158.803C187.028 159.061 187.355 159.26 187.712 159.389C188.069 159.518 188.451 159.574 188.834 159.555C189.218 159.535 189.596 159.44 189.947 159.275C190.298 159.11 190.615 158.878 190.881 158.592L191.608 157.808C191.634 157.78 191.655 157.746 191.669 157.709C191.683 157.673 191.689 157.633 191.688 157.594C191.687 157.555 191.677 157.517 191.661 157.481C191.645 157.445 191.622 157.413 191.593 157.386Z" fill="#E7E3D3"/>
<path d="M168.478 170.121C168.46 170.123 168.264 170.184 167.89 170.305C166.343 170.801 165.156 170.326 164.329 168.878C163.093 166.712 164.823 164.757 166.505 163.598C167.443 162.954 168.665 162.145 170.17 161.171C170.18 161.164 170.191 161.16 170.202 161.157C170.214 161.155 170.226 161.155 170.237 161.157C170.249 161.16 170.26 161.164 170.27 161.171C170.279 161.177 170.288 161.186 170.294 161.196C173.35 165.846 175.282 168.781 176.091 170C176.62 170.796 177.347 171.35 178.24 170.563C178.263 170.542 178.291 170.527 178.321 170.517C178.351 170.508 178.382 170.505 178.413 170.508C178.444 170.512 178.474 170.522 178.501 170.538C178.528 170.554 178.552 170.575 178.57 170.6L178.582 170.62C178.601 170.646 178.614 170.676 178.621 170.707C178.628 170.738 178.629 170.77 178.623 170.801C178.618 170.832 178.606 170.862 178.589 170.889C178.571 170.915 178.549 170.938 178.523 170.955C176.083 172.573 174.566 173.564 173.972 173.928C172.572 174.787 170.322 175.663 168.944 174.444C167.599 173.253 167.532 171.613 168.552 170.241C168.56 170.228 168.565 170.214 168.565 170.199C168.566 170.184 168.561 170.17 168.554 170.157C168.546 170.144 168.534 170.134 168.521 170.128C168.507 170.122 168.492 170.119 168.478 170.121ZM169.13 163.019C167.366 163.632 164.793 165.479 165.907 167.595C167.445 170.523 170.215 168.432 171.984 167.196C171.992 167.191 171.998 167.184 172.003 167.176C172.008 167.169 172.011 167.16 172.013 167.151C172.014 167.142 172.014 167.133 172.012 167.124C172.01 167.115 172.007 167.107 172.001 167.099L169.369 163.099C169.344 163.061 169.307 163.033 169.264 163.019C169.22 163.004 169.174 163.004 169.13 163.019ZM175.15 171.878L172.671 168.119C172.63 168.056 172.565 168.013 172.492 167.998C172.418 167.983 172.342 167.998 172.279 168.04L171.026 168.866C170.355 169.309 169.853 169.95 169.632 170.649C169.411 171.347 169.489 172.046 169.848 172.591L169.927 172.712C170.286 173.257 170.898 173.604 171.627 173.676C172.356 173.748 173.143 173.54 173.815 173.097L175.071 172.27C175.134 172.229 175.177 172.164 175.192 172.091C175.207 172.017 175.192 171.941 175.15 171.878Z" fill="#E7E3D3"/>
<path d="M69.3649 173.588C69.3376 173.566 69.319 173.536 69.3126 173.501C69.3062 173.467 69.3125 173.432 69.3302 173.402C70.7694 170.963 72.0002 168.975 73.0722 167.126C73.6115 166.197 74.2501 165.407 74.9879 164.759C76.8639 163.111 79.338 164.275 81.1693 165.694C83.5987 167.578 82.7947 170.139 81.4572 172.357C80.3488 174.195 79.4348 175.737 78.7151 176.983C78.1758 177.916 78.357 178.576 79.2586 178.963C79.2898 178.976 79.3175 178.997 79.3396 179.022C79.3617 179.048 79.3776 179.079 79.386 179.111C79.3944 179.144 79.3951 179.179 79.3881 179.212C79.381 179.245 79.3664 179.276 79.3454 179.303L79.2834 179.382C79.2608 179.411 79.2286 179.431 79.1927 179.438C79.1568 179.446 79.1194 179.44 79.0873 179.422C78.156 178.903 77.4984 178.491 77.1146 178.186C76.4297 177.64 76.7498 176.712 77.1617 176.022C78.6853 173.468 79.8037 171.58 80.5167 170.357C81.415 168.819 81.4993 166.992 79.9013 165.848C77.4347 164.089 75.6207 164.737 74.0748 167.144C73.6777 167.761 72.3328 170.003 70.0399 173.871C70.0275 173.892 70.0108 173.91 69.991 173.924C69.9712 173.938 69.9487 173.948 69.925 173.953C69.9012 173.957 69.8769 173.957 69.8534 173.951C69.83 173.946 69.8082 173.935 69.7892 173.921L69.3649 173.588Z" fill="#E7E3D3"/>
<path d="M157.016 168.918L158.43 168.293C158.462 168.279 158.498 168.278 158.53 168.29C158.562 168.302 158.588 168.326 158.602 168.357C161.229 174.304 162.631 177.477 162.808 177.876C163.267 178.906 163.788 179.437 164.939 178.854C164.96 178.843 164.983 178.837 165.006 178.836C165.03 178.835 165.053 178.838 165.075 178.846C165.097 178.854 165.117 178.866 165.134 178.882C165.152 178.898 165.165 178.917 165.175 178.938L165.22 179.04C165.238 179.083 165.24 179.133 165.223 179.177C165.206 179.221 165.173 179.256 165.13 179.276C162.852 180.288 161.299 180.971 160.47 181.325C159.468 181.752 158.444 181.95 157.398 181.918C155.946 181.874 155.14 180.923 154.676 179.549C154.16 178.027 155.038 176.737 156.207 175.839C156.218 175.83 156.227 175.819 156.233 175.807C156.239 175.794 156.241 175.781 156.241 175.767C156.24 175.753 156.237 175.739 156.23 175.727C156.223 175.715 156.214 175.705 156.202 175.697C155.418 175.14 154.515 174.5 153.492 173.777C152.291 172.928 151.366 172.248 150.023 172.504C149.969 172.513 149.914 172.505 149.865 172.48C149.817 172.455 149.778 172.414 149.754 172.365C149.731 172.315 149.725 172.259 149.737 172.206C149.749 172.153 149.778 172.105 149.82 172.069C151.087 171.019 152.462 170.973 153.944 171.93C155.011 172.619 156.351 173.565 157.964 174.769C157.999 174.796 158.04 174.812 158.083 174.818C158.126 174.823 158.17 174.816 158.209 174.799L159.128 174.392C159.164 174.376 159.193 174.346 159.208 174.31C159.223 174.273 159.222 174.232 159.207 174.196L156.949 169.089C156.942 169.074 156.938 169.057 156.938 169.04C156.937 169.022 156.94 169.005 156.947 168.99C156.953 168.974 156.962 168.959 156.974 168.947C156.986 168.934 157 168.925 157.016 168.918ZM161.626 179.66L159.669 175.261C159.639 175.195 159.584 175.144 159.517 175.118C159.449 175.093 159.375 175.095 159.309 175.124L158.321 175.563C157.598 175.886 157.017 176.447 156.706 177.123C156.394 177.8 156.378 178.537 156.661 179.171L156.708 179.278C156.848 179.593 157.057 179.873 157.323 180.103C157.59 180.332 157.908 180.507 158.261 180.617C158.613 180.726 158.992 180.769 159.377 180.742C159.762 180.715 160.144 180.619 160.502 180.459L161.488 180.02C161.554 179.991 161.605 179.936 161.631 179.869C161.657 179.801 161.656 179.726 161.626 179.66Z" fill="#E7E3D3"/>
<path d="M89.2812 184.05C85.6384 182.715 84.7575 178.97 85.9809 175.633C87.2067 172.293 90.2986 170.007 93.939 171.342C97.5818 172.68 98.4627 176.422 97.2393 179.76C96.0135 183.1 92.9216 185.385 89.2812 184.05ZM87.8519 176.323C86.9809 178.695 86.6087 182.169 89.5592 183.253C92.5096 184.338 94.4799 181.454 95.3509 179.082C96.2244 176.712 96.5942 173.238 93.6437 172.154C90.6932 171.067 88.7254 173.953 87.8519 176.323Z" fill="#E7E3D3"/>
<path d="M144.693 173.563L146.189 173.174C146.222 173.165 146.258 173.17 146.287 173.186C146.317 173.203 146.339 173.231 146.348 173.263C147.982 179.558 148.855 182.917 148.966 183.34C149.251 184.43 149.681 185.038 150.911 184.648C150.934 184.641 150.958 184.638 150.981 184.641C151.005 184.643 151.027 184.65 151.048 184.661C151.069 184.673 151.087 184.688 151.101 184.707C151.116 184.725 151.126 184.747 151.132 184.77L151.16 184.876C151.171 184.922 151.164 184.971 151.141 185.012C151.117 185.053 151.078 185.083 151.033 185.095C148.619 185.727 146.975 186.151 146.1 186.368C145.041 186.627 143.999 186.657 142.973 186.457C141.546 186.179 140.904 185.112 140.665 183.678C140.402 182.095 141.477 180.963 142.777 180.263C142.789 180.257 142.8 180.247 142.808 180.236C142.816 180.224 142.821 180.211 142.823 180.197C142.824 180.183 142.823 180.169 142.818 180.156C142.813 180.143 142.805 180.131 142.794 180.122C142.11 179.445 141.321 178.668 140.43 177.789C139.38 176.757 138.576 175.938 137.209 175.973C137.154 175.973 137.101 175.956 137.057 175.923C137.014 175.89 136.982 175.844 136.967 175.791C136.953 175.739 136.956 175.683 136.976 175.632C136.996 175.582 137.033 175.539 137.08 175.511C138.499 174.679 139.864 174.855 141.174 176.04C142.115 176.89 143.285 178.041 144.683 179.492C144.713 179.523 144.751 179.546 144.793 179.557C144.835 179.569 144.879 179.57 144.921 179.559L145.894 179.308C145.913 179.303 145.931 179.294 145.948 179.282C145.964 179.27 145.977 179.255 145.987 179.238C145.997 179.221 146.004 179.202 146.007 179.183C146.009 179.163 146.008 179.143 146.003 179.124L144.599 173.72C144.594 173.703 144.594 173.686 144.596 173.669C144.599 173.652 144.604 173.636 144.613 173.622C144.622 173.607 144.634 173.595 144.647 173.585C144.661 173.575 144.676 173.567 144.693 173.563ZM147.532 184.951L146.288 180.219C146.281 180.189 146.267 180.16 146.248 180.136C146.23 180.111 146.206 180.09 146.179 180.075C146.153 180.059 146.123 180.049 146.092 180.044C146.062 180.04 146.031 180.042 146.001 180.05L144.946 180.328C144.171 180.531 143.498 180.992 143.074 181.611C142.651 182.229 142.512 182.954 142.688 183.626L142.72 183.75C142.807 184.082 142.969 184.392 143.196 184.661C143.424 184.93 143.712 185.152 144.045 185.317C144.378 185.481 144.749 185.583 145.137 185.617C145.525 185.651 145.922 185.617 146.306 185.517L147.363 185.239C147.393 185.231 147.421 185.217 147.446 185.198C147.47 185.18 147.491 185.156 147.507 185.13C147.523 185.103 147.533 185.073 147.537 185.043C147.541 185.012 147.539 184.981 147.532 184.951Z" fill="#E7E3D3"/>
<path d="M109.562 175.792L111.086 176.065C111.12 176.071 111.149 176.091 111.169 176.118C111.188 176.146 111.196 176.18 111.19 176.213C110.042 182.617 109.43 186.034 109.354 186.464C109.158 187.576 109.292 188.306 110.575 188.467C110.598 188.47 110.621 188.478 110.641 188.49C110.661 188.502 110.679 188.518 110.693 188.537C110.707 188.556 110.717 188.577 110.722 188.6C110.727 188.623 110.728 188.647 110.724 188.67L110.704 188.78C110.695 188.827 110.669 188.868 110.63 188.896C110.592 188.923 110.544 188.934 110.498 188.926C108.04 188.489 106.368 188.187 105.483 188.018C104.412 187.811 103.453 187.402 102.604 186.79C101.426 185.941 101.287 184.7 101.671 183.301C102.093 181.75 103.545 181.171 105.016 181.08C105.03 181.079 105.044 181.075 105.056 181.068C105.068 181.061 105.078 181.052 105.086 181.04C105.093 181.028 105.098 181.015 105.099 181.001C105.1 180.987 105.098 180.973 105.093 180.961C104.754 180.057 104.363 179.02 103.92 177.849C103.398 176.472 103.011 175.392 101.753 174.851C101.703 174.829 101.662 174.791 101.635 174.743C101.609 174.695 101.599 174.64 101.608 174.585C101.616 174.531 101.643 174.482 101.682 174.444C101.722 174.406 101.773 174.383 101.828 174.377C103.467 174.215 104.634 174.946 105.329 176.571C105.829 177.739 106.41 179.274 107.073 181.176C107.088 181.218 107.113 181.255 107.146 181.283C107.179 181.311 107.219 181.33 107.262 181.338L108.25 181.514C108.269 181.518 108.289 181.517 108.309 181.513C108.328 181.509 108.347 181.502 108.363 181.49C108.379 181.479 108.393 181.465 108.404 181.449C108.415 181.432 108.422 181.414 108.426 181.395L109.411 175.896C109.414 175.879 109.42 175.863 109.43 175.849C109.439 175.834 109.451 175.822 109.465 175.812C109.479 175.802 109.495 175.796 109.512 175.792C109.528 175.789 109.546 175.788 109.562 175.792ZM107.364 187.35L108.23 182.484C108.24 182.426 108.227 182.366 108.193 182.318C108.159 182.269 108.107 182.236 108.049 182.226L107.011 182.04C106.615 181.969 106.21 181.966 105.82 182.032C105.43 182.097 105.062 182.229 104.739 182.42C104.415 182.611 104.142 182.857 103.934 183.145C103.726 183.433 103.588 183.756 103.527 184.097L103.505 184.214C103.383 184.902 103.584 185.618 104.064 186.206C104.545 186.793 105.265 187.203 106.066 187.345L107.103 187.532C107.132 187.537 107.162 187.536 107.191 187.53C107.22 187.524 107.247 187.512 107.271 187.495C107.296 187.478 107.316 187.457 107.332 187.432C107.348 187.407 107.359 187.379 107.364 187.35Z" fill="#E7E3D3"/>
<path d="M115.106 183.206L115.136 183.1C115.146 183.063 115.168 183.03 115.199 183.007C115.23 182.983 115.268 182.971 115.307 182.971C116.143 182.972 116.564 182.443 116.573 181.382C116.581 180.363 116.58 179.148 116.57 177.737C116.57 177.662 116.591 177.587 116.631 177.523C116.671 177.459 116.728 177.408 116.796 177.375C119.307 176.166 122.456 175.811 124.781 177.293C127.087 178.759 128.064 181.355 127.853 184.04C127.625 186.921 125.719 189.514 122.657 189.805C120.771 189.983 118.449 189.663 117.223 188.259C116.781 187.752 116.754 186.469 116.754 185.869C116.753 185.803 116.776 185.74 116.82 185.69C116.864 185.641 116.924 185.61 116.989 185.603C117.055 185.597 117.12 185.614 117.173 185.653C117.226 185.692 117.262 185.75 117.275 185.814C117.685 187.78 118.889 188.843 120.885 189.003C125.806 189.398 126.491 183.611 125.501 180.253C124.58 177.134 121.163 176.489 118.498 177.759C118.46 177.779 118.427 177.809 118.404 177.846C118.381 177.883 118.369 177.925 118.369 177.968C118.373 178.668 118.376 179.597 118.379 180.755C118.387 182.152 118.146 182.956 116.749 183.273C116.19 183.401 115.692 183.448 115.255 183.415C115.231 183.413 115.207 183.405 115.186 183.393C115.165 183.381 115.147 183.365 115.133 183.345C115.118 183.325 115.109 183.302 115.104 183.278C115.1 183.255 115.1 183.23 115.106 183.206Z" fill="#E7E3D3"/>
</svg>
