<svg width="23" height="23" viewBox="0 0 23 23" fill="none" xmlns="http://www.w3.org/2000/svg">
<path d="M11.7154 0C13.2288 0.0335417 14.6665 0.342484 16.0287 0.926828C19.4361 2.38877 21.937 5.41704 22.7333 9.02391C22.894 9.7514 22.9829 10.5042 23 11.2824V11.7145C22.9521 13.7947 22.399 15.7082 21.3408 17.4548C20.2346 19.2808 18.6284 20.7717 16.7289 21.7438C15.1748 22.5391 13.5035 22.9578 11.7147 23H11.2829C9.78207 22.9663 8.35511 22.6616 7.00206 22.0857C5.1989 21.3183 3.62466 20.1029 2.41949 18.5547C0.895203 16.5963 0.0548047 14.2133 0 11.725V11.2795C0.0555234 8.63758 1.00104 6.12123 2.69226 4.10694C3.85591 2.72101 5.33798 1.62168 7.0044 0.912273C8.24125 0.385789 9.54674 0.087388 10.9209 0.0170703C11.0402 0.0109609 11.1596 0.00527083 11.2792 0H11.7154ZM11.732 8.32312C11.7848 8.29264 11.8311 8.25205 11.8682 8.20368C11.9053 8.1553 11.9326 8.10009 11.9483 8.04118C11.9641 7.98228 11.9682 7.92085 11.9602 7.86039C11.9522 7.79993 11.9325 7.74164 11.902 7.68883L9.95199 4.31142C9.92151 4.25861 9.88092 4.21232 9.83254 4.17519C9.78417 4.13807 9.72895 4.11084 9.67005 4.09505C9.61115 4.07927 9.54972 4.07524 9.48926 4.0832C9.4288 4.09116 9.3705 4.11095 9.31769 4.14144L8.29527 4.73171C8.24246 4.7622 8.19617 4.80278 8.15904 4.85116C8.12192 4.89954 8.09469 4.95475 8.0789 5.01365C8.06312 5.07255 8.05909 5.13399 8.06705 5.19444C8.07501 5.2549 8.0948 5.3132 8.12529 5.36601L10.0753 8.74341C10.1057 8.79623 10.1463 8.84252 10.1947 8.87964C10.2431 8.91677 10.2983 8.944 10.3572 8.95979C10.4161 8.97557 10.4775 8.9796 10.538 8.97164C10.5984 8.96368 10.6567 8.94389 10.7096 8.9134L11.732 8.32312ZM15.224 18.3164L13.161 14.7432C13.1606 14.7424 13.1601 14.7418 13.1594 14.7413C13.1587 14.7408 13.158 14.7404 13.1572 14.7402C13.1564 14.7399 13.1555 14.7399 13.1547 14.74C13.1539 14.7401 13.1531 14.7404 13.1524 14.7408C12.1021 15.3397 10.9915 14.3437 10.4066 13.5727C10.0063 13.0448 9.6933 12.4683 9.46773 11.8434C9.27996 11.3235 9.15777 10.7496 9.19677 10.1978C9.22749 9.76062 9.3973 9.30781 9.77805 9.05859C9.81196 9.03654 9.8331 9.02271 9.84148 9.01708C9.84415 9.01533 9.84605 9.01263 9.84678 9.00956C9.84752 9.00648 9.84704 9.00325 9.84544 9.00055L7.78514 5.43195C7.78467 5.43112 7.78405 5.43039 7.7833 5.4298C7.78254 5.42922 7.78168 5.42879 7.78076 5.42854C7.77984 5.42829 7.77888 5.42822 7.77794 5.42834C7.77699 5.42847 7.77608 5.42878 7.77526 5.42926C7.4387 5.61703 7.0477 5.85835 6.7523 6.13615C6.39616 6.47097 6.19131 6.88449 6.13777 7.37671C6.12327 7.51076 6.11668 7.64834 6.118 7.78945C6.12519 8.52635 6.25941 9.25732 6.45941 9.97302C6.61154 10.5177 6.80195 11.0641 7.03063 11.6121C7.59066 12.9537 8.30132 14.2226 9.16263 15.4188C9.74284 16.2245 10.3967 16.9886 11.1349 17.6556C11.4461 17.9368 11.7727 18.1896 12.1147 18.414C12.4121 18.6093 12.7132 18.7711 13.0582 18.8605C13.6324 19.0093 14.1955 18.864 14.7069 18.6056C14.9262 18.4946 15.0976 18.4019 15.2211 18.3272C15.223 18.3261 15.2243 18.3243 15.2248 18.3223C15.2254 18.3203 15.2251 18.3182 15.224 18.3164ZM17.0644 17.5594C17.1172 17.5289 17.1635 17.4883 17.2006 17.44C17.2377 17.3916 17.265 17.3364 17.2808 17.2775C17.2965 17.2186 17.3006 17.1571 17.2926 17.0967C17.2846 17.0362 17.2649 16.9779 17.2344 16.9251L15.2844 13.5477C15.2539 13.4949 15.2133 13.4486 15.1649 13.4115C15.1166 13.3744 15.0614 13.3471 15.0025 13.3313C14.9436 13.3156 14.8821 13.3115 14.8217 13.3195C14.7612 13.3275 14.7029 13.3472 14.6501 13.3777L13.6277 13.9682C13.5749 13.9987 13.5286 14.0393 13.4915 14.0876C13.4543 14.136 13.4271 14.1912 13.4113 14.2501C13.3955 14.309 13.3915 14.3705 13.3995 14.4309C13.4074 14.4914 13.4272 14.5497 13.4577 14.6025L15.4077 17.9799C15.4381 18.0327 15.4787 18.079 15.5271 18.1161C15.5755 18.1532 15.6307 18.1805 15.6896 18.1963C15.7485 18.212 15.8099 18.2161 15.8704 18.2081C15.9309 18.2002 15.9892 18.1804 16.042 18.1499L17.0644 17.5594Z" fill="#012A2C"/>
</svg>
