<svg width="23" height="23" viewBox="0 0 23 23" fill="none" xmlns="http://www.w3.org/2000/svg">
<path d="M23 11.5C23 14.55 21.7884 17.4751 19.6317 19.6317C17.4751 21.7884 14.55 23 11.5 23C8.45001 23 5.52494 21.7884 3.36827 19.6317C1.2116 17.4751 0 14.55 0 11.5C0 8.45001 1.2116 5.52494 3.36827 3.36827C5.52494 1.2116 8.45001 0 11.5 0C14.55 0 17.4751 1.2116 19.6317 3.36827C21.7884 5.52494 23 8.45001 23 11.5ZM14.3343 9.1746C14.3969 9.2465 14.3754 9.35326 14.3225 9.41987C14.2042 9.56907 14.0661 9.71889 13.9082 9.86933C13.4511 10.3051 12.7644 10.9526 11.8483 11.8119C11.5735 12.0696 11.354 12.2607 11.1059 12.4904C10.8557 12.7223 10.6235 13.0367 10.8015 13.3921C10.8586 13.5058 10.9501 13.6052 11.0761 13.6903C11.3039 13.8445 11.964 14.2821 13.0563 15.0032C13.2298 15.1179 13.4031 15.2359 13.5764 15.3571C14.0903 15.7169 15.0321 16.5125 15.6534 15.969C15.8436 15.8025 15.9668 15.4937 16.0235 15.2369C16.1268 14.7694 16.1692 14.2475 16.2386 13.8108C16.5517 11.838 16.8639 9.91477 17.1272 7.96226C17.1702 7.6426 17.2078 7.38799 17.1369 7.15517C16.9725 6.61452 16.3705 6.70603 15.974 6.86196C12.7211 8.14154 9.37163 9.60476 6.31758 10.9457C6.14576 11.0212 6.01026 11.119 5.91108 11.2392C5.71467 11.4776 5.88649 11.7197 6.13331 11.8175C6.77263 12.0708 7.53864 12.2181 8.13936 12.3893C8.35371 12.4505 8.50592 12.4796 8.59598 12.4767C9.13414 12.4602 9.58888 12.1848 10.0327 11.8841C10.2284 11.7513 10.4565 11.5904 10.7169 11.4013C10.8051 11.3372 11.0362 11.1802 11.4104 10.9304C11.726 10.7198 12.0966 10.4643 12.5222 10.1641C12.9825 9.83913 13.5347 9.47372 13.972 9.1939C14.0844 9.122 14.2325 9.05819 14.3343 9.1746Z" fill="#012A2C"/>
</svg>
